<?xml version="1.0" encoding="UTF-8" standalone="no"?>
<!DOCTYPE svg PUBLIC "-//W3C//DTD SVG 1.1//EN"
 "http://www.w3.org/Graphics/SVG/1.1/DTD/svg11.dtd">
<!-- Generated by graphviz version 2.40.1 (20161225.0304)
 -->
<!-- Title: dependencies Pages: 1 -->
<svg width="504pt" height="211pt"
 viewBox="0.00 0.00 504.00 211.00" xmlns="http://www.w3.org/2000/svg" xmlns:xlink="http://www.w3.org/1999/xlink">
<g id="graph0" class="graph" transform="scale(1 1) rotate(0) translate(4 207)">
<title>dependencies</title>
<polygon fill="#ffffff" stroke="transparent" points="-4,4 -4,-207 500,-207 500,4 -4,4"/>
<text text-anchor="start" x="227.0091" y="-42.4" font-family="sans-serif" font-weight="bold" font-size="14.00" fill="#000000">Legend</text>
<polygon fill="#ffffb3" stroke="transparent" points="14,-10 14,-30 34,-30 34,-10 14,-10"/>
<text text-anchor="start" x="37.629" y="-15.4" font-family="sans-serif" font-size="14.00" fill="#000000"> &#160;Declarations</text>
<polygon fill="#8dd3c7" stroke="transparent" points="127,-10 127,-30 147,-30 147,-10 127,-10"/>
<text text-anchor="start" x="150.7251" y="-15.4" font-family="sans-serif" font-size="14.00" fill="#000000"> &#160;Module</text>
<polygon fill="#80b1d3" stroke="transparent" points="213,-10 213,-30 233,-30 233,-10 213,-10"/>
<text text-anchor="start" x="236.7812" y="-15.4" font-family="sans-serif" font-size="14.00" fill="#000000"> &#160;Bootstrap</text>
<polygon fill="#fdb462" stroke="transparent" points="310,-10 310,-30 330,-30 330,-10 310,-10"/>
<text text-anchor="start" x="333.6732" y="-15.4" font-family="sans-serif" font-size="14.00" fill="#000000"> &#160;Providers</text>
<polygon fill="#fb8072" stroke="transparent" points="406,-10 406,-30 426,-30 426,-10 406,-10"/>
<text text-anchor="start" x="429.7258" y="-15.4" font-family="sans-serif" font-size="14.00" fill="#000000"> &#160;Exports</text>
<g id="clust1" class="cluster">
<title>cluster_CoreModule</title>
<polygon fill="none" stroke="#000000" stroke-dasharray="1,5" points="23.5,-70 23.5,-195 472.5,-195 472.5,-70 23.5,-70"/>
</g>
<g id="clust6" class="cluster">
<title>cluster_CoreModule_providers</title>
<polygon fill="none" stroke="#000000" points="31.5,-78 31.5,-130 464.5,-130 464.5,-78 31.5,-78"/>
</g>
<!-- ProjectService -->
<g id="node1" class="node">
<title>ProjectService</title>
<ellipse fill="#fdb462" stroke="#000000" cx="389.5" cy="-104" rx="67.1888" ry="18"/>
<text text-anchor="middle" x="389.5" y="-99.8" font-family="Times,serif" font-size="14.00" fill="#000000">ProjectService</text>
</g>
<!-- CoreModule -->
<g id="node4" class="node">
<title>CoreModule</title>
<polygon fill="#8dd3c7" stroke="#000000" points="288.7619,-187 285.7619,-191 264.7619,-191 261.7619,-187 202.2381,-187 202.2381,-151 288.7619,-151 288.7619,-187"/>
<text text-anchor="middle" x="245.5" y="-164.8" font-family="Times,serif" font-size="14.00" fill="#000000">CoreModule</text>
</g>
<!-- ProjectService&#45;&gt;CoreModule -->
<g id="edge1" class="edge">
<title>ProjectService&#45;&gt;CoreModule</title>
<path fill="none" stroke="#000000" d="M389.5,-122.1061C389.5,-141.3391 389.5,-169 389.5,-169 389.5,-169 299.0955,-169 299.0955,-169"/>
<polygon fill="#000000" stroke="#000000" points="299.0956,-165.5001 289.0955,-169 299.0955,-172.5001 299.0956,-165.5001"/>
</g>
<!-- UserService -->
<g id="node2" class="node">
<title>UserService</title>
<ellipse fill="#fdb462" stroke="#000000" cx="245.5" cy="-104" rx="58.4415" ry="18"/>
<text text-anchor="middle" x="245.5" y="-99.8" font-family="Times,serif" font-size="14.00" fill="#000000">UserService</text>
</g>
<!-- UserService&#45;&gt;CoreModule -->
<g id="edge2" class="edge">
<title>UserService&#45;&gt;CoreModule</title>
<path fill="none" stroke="#000000" d="M245.5,-122.1061C245.5,-122.1061 245.5,-140.991 245.5,-140.991"/>
<polygon fill="#000000" stroke="#000000" points="242.0001,-140.9909 245.5,-150.991 249.0001,-140.991 242.0001,-140.9909"/>
</g>
<!-- jwtinterceptor -->
<g id="node3" class="node">
<title>jwtinterceptor</title>
<ellipse fill="#fdb462" stroke="#000000" cx="104.5" cy="-104" rx="65.4033" ry="18"/>
<text text-anchor="middle" x="104.5" y="-99.8" font-family="Times,serif" font-size="14.00" fill="#000000">jwtinterceptor</text>
</g>
<!-- jwtinterceptor&#45;&gt;CoreModule -->
<g id="edge3" class="edge">
<title>jwtinterceptor&#45;&gt;CoreModule</title>
<path fill="none" stroke="#000000" d="M104.5,-122.1061C104.5,-141.3391 104.5,-169 104.5,-169 104.5,-169 192.0448,-169 192.0448,-169"/>
<polygon fill="#000000" stroke="#000000" points="192.0449,-172.5001 202.0448,-169 192.0448,-165.5001 192.0449,-172.5001"/>
</g>
</g>
</svg>
