<?xml version="1.0" encoding="UTF-8" standalone="no"?>
<!DOCTYPE svg PUBLIC "-//W3C//DTD SVG 1.1//EN"
 "http://www.w3.org/Graphics/SVG/1.1/DTD/svg11.dtd">
<!-- Generated by graphviz version 2.40.1 (20161225.0304)
 -->
<!-- Title: dependencies Pages: 1 -->
<svg width="504pt" height="284pt"
 viewBox="0.00 0.00 504.00 284.00" xmlns="http://www.w3.org/2000/svg" xmlns:xlink="http://www.w3.org/1999/xlink">
<g id="graph0" class="graph" transform="scale(1 1) rotate(0) translate(4 280)">
<title>dependencies</title>
<polygon fill="#ffffff" stroke="transparent" points="-4,4 -4,-280 500,-280 500,4 -4,4"/>
<text text-anchor="start" x="227.0091" y="-42.4" font-family="sans-serif" font-weight="bold" font-size="14.00" fill="#000000">Legend</text>
<polygon fill="#ffffb3" stroke="transparent" points="14,-10 14,-30 34,-30 34,-10 14,-10"/>
<text text-anchor="start" x="37.629" y="-15.4" font-family="sans-serif" font-size="14.00" fill="#000000"> &#160;Declarations</text>
<polygon fill="#8dd3c7" stroke="transparent" points="127,-10 127,-30 147,-30 147,-10 127,-10"/>
<text text-anchor="start" x="150.7251" y="-15.4" font-family="sans-serif" font-size="14.00" fill="#000000"> &#160;Module</text>
<polygon fill="#80b1d3" stroke="transparent" points="213,-10 213,-30 233,-30 233,-10 213,-10"/>
<text text-anchor="start" x="236.7812" y="-15.4" font-family="sans-serif" font-size="14.00" fill="#000000"> &#160;Bootstrap</text>
<polygon fill="#fdb462" stroke="transparent" points="310,-10 310,-30 330,-30 330,-10 310,-10"/>
<text text-anchor="start" x="333.6732" y="-15.4" font-family="sans-serif" font-size="14.00" fill="#000000"> &#160;Providers</text>
<polygon fill="#fb8072" stroke="transparent" points="406,-10 406,-30 426,-30 426,-10 406,-10"/>
<text text-anchor="start" x="429.7258" y="-15.4" font-family="sans-serif" font-size="14.00" fill="#000000"> &#160;Exports</text>
<g id="clust1" class="cluster">
<title>cluster_SharedModule</title>
<polygon fill="none" stroke="#000000" stroke-dasharray="1,5" points="91,-70 91,-268 405,-268 405,-70 91,-70"/>
</g>
<g id="clust2" class="cluster">
<title>cluster_SharedModule_declarations</title>
<polygon fill="none" stroke="#000000" points="103,-78 103,-130 394,-130 394,-78 103,-78"/>
</g>
<g id="clust6" class="cluster">
<title>cluster_SharedModule_exports</title>
<polygon fill="none" stroke="#000000" points="99,-208 99,-260 397,-260 397,-208 99,-208"/>
</g>
<!-- AppLogoComponent -->
<g id="node1" class="node">
<title>AppLogoComponent</title>
<polygon fill="#ffffb3" stroke="#000000" points="386.4916,-122 251.5084,-122 251.5084,-86 386.4916,-86 386.4916,-122"/>
<text text-anchor="middle" x="319" y="-99.8" font-family="Times,serif" font-size="14.00" fill="#000000">AppLogoComponent</text>
</g>
<!-- SharedModule -->
<g id="node3" class="node">
<title>SharedModule</title>
<polygon fill="#8dd3c7" stroke="#000000" points="222.4231,-187 219.4231,-191 198.4231,-191 195.4231,-187 123.5769,-187 123.5769,-151 222.4231,-151 222.4231,-187"/>
<text text-anchor="middle" x="173" y="-164.8" font-family="Times,serif" font-size="14.00" fill="#000000">SharedModule</text>
</g>
<!-- AppLogoComponent&#45;&gt;SharedModule -->
<g id="edge1" class="edge">
<title>AppLogoComponent&#45;&gt;SharedModule</title>
<path fill="none" stroke="#000000" d="M341.4986,-122.0225C341.4986,-139.3734 341.4986,-163 341.4986,-163 341.4986,-163 232.6438,-163 232.6438,-163"/>
<polygon fill="#000000" stroke="#000000" points="232.6438,-159.5001 222.6438,-163 232.6438,-166.5001 232.6438,-159.5001"/>
</g>
<!-- NavbarComponent -->
<g id="node2" class="node">
<title>NavbarComponent</title>
<polygon fill="#ffffb3" stroke="#000000" points="233.0297,-122 110.9703,-122 110.9703,-86 233.0297,-86 233.0297,-122"/>
<text text-anchor="middle" x="172" y="-99.8" font-family="Times,serif" font-size="14.00" fill="#000000">NavbarComponent</text>
</g>
<!-- NavbarComponent&#45;&gt;SharedModule -->
<g id="edge2" class="edge">
<title>NavbarComponent&#45;&gt;SharedModule</title>
<path fill="none" stroke="#000000" d="M173,-122.1061C173,-122.1061 173,-140.991 173,-140.991"/>
<polygon fill="#000000" stroke="#000000" points="169.5001,-140.9909 173,-150.991 176.5001,-140.991 169.5001,-140.9909"/>
</g>
<!-- AppLogoComponent  -->
<g id="node4" class="node">
<title>AppLogoComponent </title>
<polygon fill="#fb8072" stroke="#000000" points="389.4925,-252 250.5075,-252 250.5075,-216 389.4925,-216 389.4925,-252"/>
<text text-anchor="middle" x="320" y="-229.8" font-family="Times,serif" font-size="14.00" fill="#000000">AppLogoComponent </text>
</g>
<!-- SharedModule&#45;&gt;AppLogoComponent  -->
<g id="edge3" class="edge">
<title>SharedModule&#45;&gt;AppLogoComponent </title>
<path fill="none" stroke="#000000" stroke-dasharray="5,2" d="M222.5211,-175C256.8802,-175 296.5014,-175 296.5014,-175 296.5014,-175 296.5014,-205.9775 296.5014,-205.9775"/>
<polygon fill="#000000" stroke="#000000" points="293.0015,-205.9774 296.5014,-215.9775 300.0015,-205.9775 293.0015,-205.9774"/>
</g>
<!-- NavbarComponent  -->
<g id="node5" class="node">
<title>NavbarComponent </title>
<polygon fill="#fb8072" stroke="#000000" points="233.0288,-252 106.9712,-252 106.9712,-216 233.0288,-216 233.0288,-252"/>
<text text-anchor="middle" x="170" y="-229.8" font-family="Times,serif" font-size="14.00" fill="#000000">NavbarComponent </text>
</g>
<!-- SharedModule&#45;&gt;NavbarComponent  -->
<g id="edge4" class="edge">
<title>SharedModule&#45;&gt;NavbarComponent </title>
<path fill="none" stroke="#000000" stroke-dasharray="5,2" d="M173,-187.1061C173,-187.1061 173,-205.991 173,-205.991"/>
<polygon fill="#000000" stroke="#000000" points="169.5001,-205.9909 173,-215.991 176.5001,-205.991 169.5001,-205.9909"/>
</g>
</g>
</svg>
