<?xml version="1.0" encoding="UTF-8" standalone="no"?>
<!DOCTYPE svg PUBLIC "-//W3C//DTD SVG 1.1//EN"
 "http://www.w3.org/Graphics/SVG/1.1/DTD/svg11.dtd">
<!-- Generated by graphviz version 2.40.1 (20161225.0304)
 -->
<!-- Title: dependencies Pages: 1 -->
<svg width="504pt" height="211pt"
 viewBox="0.00 0.00 504.00 211.00" xmlns="http://www.w3.org/2000/svg" xmlns:xlink="http://www.w3.org/1999/xlink">
<g id="graph0" class="graph" transform="scale(1 1) rotate(0) translate(4 207)">
<title>dependencies</title>
<polygon fill="#ffffff" stroke="transparent" points="-4,4 -4,-207 500,-207 500,4 -4,4"/>
<text text-anchor="start" x="227.0091" y="-42.4" font-family="sans-serif" font-weight="bold" font-size="14.00" fill="#000000">Legend</text>
<polygon fill="#ffffb3" stroke="transparent" points="14,-10 14,-30 34,-30 34,-10 14,-10"/>
<text text-anchor="start" x="37.629" y="-15.4" font-family="sans-serif" font-size="14.00" fill="#000000"> &#160;Declarations</text>
<polygon fill="#8dd3c7" stroke="transparent" points="127,-10 127,-30 147,-30 147,-10 127,-10"/>
<text text-anchor="start" x="150.7251" y="-15.4" font-family="sans-serif" font-size="14.00" fill="#000000"> &#160;Module</text>
<polygon fill="#80b1d3" stroke="transparent" points="213,-10 213,-30 233,-30 233,-10 213,-10"/>
<text text-anchor="start" x="236.7812" y="-15.4" font-family="sans-serif" font-size="14.00" fill="#000000"> &#160;Bootstrap</text>
<polygon fill="#fdb462" stroke="transparent" points="310,-10 310,-30 330,-30 330,-10 310,-10"/>
<text text-anchor="start" x="333.6732" y="-15.4" font-family="sans-serif" font-size="14.00" fill="#000000"> &#160;Providers</text>
<polygon fill="#fb8072" stroke="transparent" points="406,-10 406,-30 426,-30 426,-10 406,-10"/>
<text text-anchor="start" x="429.7258" y="-15.4" font-family="sans-serif" font-size="14.00" fill="#000000"> &#160;Exports</text>
<g id="clust1" class="cluster">
<title>cluster_ZipFileExplorerModule</title>
<polygon fill="none" stroke="#000000" stroke-dasharray="1,5" points="43.5,-70 43.5,-195 452.5,-195 452.5,-70 43.5,-70"/>
</g>
<g id="clust2" class="cluster">
<title>cluster_ZipFileExplorerModule_declarations</title>
<polygon fill="none" stroke="#000000" points="51.5,-78 51.5,-130 444.5,-130 444.5,-78 51.5,-78"/>
</g>
<!-- LexPipe -->
<g id="node1" class="node">
<title>LexPipe</title>
<polygon fill="#ffffb3" stroke="#000000" points="436.6559,-122 374.3441,-122 374.3441,-86 436.6559,-86 436.6559,-122"/>
<text text-anchor="middle" x="405.5" y="-99.8" font-family="Times,serif" font-size="14.00" fill="#000000">LexPipe</text>
</g>
<!-- ZipFileExplorerModule -->
<g id="node4" class="node">
<title>ZipFileExplorerModule</title>
<polygon fill="#8dd3c7" stroke="#000000" points="374.2506,-187 371.2506,-191 350.2506,-191 347.2506,-187 224.7494,-187 224.7494,-151 374.2506,-151 374.2506,-187"/>
<text text-anchor="middle" x="299.5" y="-164.8" font-family="Times,serif" font-size="14.00" fill="#000000">ZipFileExplorerModule</text>
</g>
<!-- LexPipe&#45;&gt;ZipFileExplorerModule -->
<g id="edge1" class="edge">
<title>LexPipe&#45;&gt;ZipFileExplorerModule</title>
<path fill="none" stroke="#000000" d="M373.9422,-104C368.706,-104 364.9408,-104 364.9408,-104 364.9408,-104 364.9408,-140.8939 364.9408,-140.8939"/>
<polygon fill="#000000" stroke="#000000" points="361.4408,-140.8938 364.9408,-150.8939 368.4408,-140.8939 361.4408,-140.8938"/>
</g>
<!-- LineNumberPipe -->
<g id="node2" class="node">
<title>LineNumberPipe</title>
<polygon fill="#ffffb3" stroke="#000000" points="355.9188,-122 243.0812,-122 243.0812,-86 355.9188,-86 355.9188,-122"/>
<text text-anchor="middle" x="299.5" y="-99.8" font-family="Times,serif" font-size="14.00" fill="#000000">LineNumberPipe</text>
</g>
<!-- LineNumberPipe&#45;&gt;ZipFileExplorerModule -->
<g id="edge2" class="edge">
<title>LineNumberPipe&#45;&gt;ZipFileExplorerModule</title>
<path fill="none" stroke="#000000" d="M299.5,-122.1061C299.5,-122.1061 299.5,-140.991 299.5,-140.991"/>
<polygon fill="#000000" stroke="#000000" points="296.0001,-140.9909 299.5,-150.991 303.0001,-140.991 296.0001,-140.9909"/>
</g>
<!-- ZipComponentComponent -->
<g id="node3" class="node">
<title>ZipComponentComponent</title>
<polygon fill="#ffffb3" stroke="#000000" points="225.608,-122 59.392,-122 59.392,-86 225.608,-86 225.608,-122"/>
<text text-anchor="middle" x="142.5" y="-99.8" font-family="Times,serif" font-size="14.00" fill="#000000">ZipComponentComponent</text>
</g>
<!-- ZipComponentComponent&#45;&gt;ZipFileExplorerModule -->
<g id="edge3" class="edge">
<title>ZipComponentComponent&#45;&gt;ZipFileExplorerModule</title>
<path fill="none" stroke="#000000" d="M225.6086,-104C231.0548,-104 234.4225,-104 234.4225,-104 234.4225,-104 234.4225,-140.8939 234.4225,-140.8939"/>
<polygon fill="#000000" stroke="#000000" points="230.9226,-140.8938 234.4225,-150.8939 237.9226,-140.8939 230.9226,-140.8938"/>
</g>
</g>
</svg>
