<?xml version="1.0" encoding="UTF-8" standalone="no"?>
<!DOCTYPE svg PUBLIC "-//W3C//DTD SVG 1.1//EN"
 "http://www.w3.org/Graphics/SVG/1.1/DTD/svg11.dtd">
<!-- Generated by graphviz version 2.40.1 (20161225.0304)
 -->
<!-- Title: dependencies Pages: 1 -->
<svg width="2550pt" height="436pt"
 viewBox="0.00 0.00 2550.00 436.00" xmlns="http://www.w3.org/2000/svg" xmlns:xlink="http://www.w3.org/1999/xlink">
<g id="graph0" class="graph" transform="scale(1 1) rotate(0) translate(4 432)">
<title>dependencies</title>
<polygon fill="#ffffff" stroke="transparent" points="-4,4 -4,-432 2546,-432 2546,4 -4,4"/>
<text text-anchor="start" x="1250.0091" y="-42.4" font-family="sans-serif" font-weight="bold" font-size="14.00" fill="#000000">Legend</text>
<polygon fill="#ffffb3" stroke="transparent" points="1037,-10 1037,-30 1057,-30 1057,-10 1037,-10"/>
<text text-anchor="start" x="1060.629" y="-15.4" font-family="sans-serif" font-size="14.00" fill="#000000"> &#160;Declarations</text>
<polygon fill="#8dd3c7" stroke="transparent" points="1150,-10 1150,-30 1170,-30 1170,-10 1150,-10"/>
<text text-anchor="start" x="1173.7251" y="-15.4" font-family="sans-serif" font-size="14.00" fill="#000000"> &#160;Module</text>
<polygon fill="#80b1d3" stroke="transparent" points="1236,-10 1236,-30 1256,-30 1256,-10 1236,-10"/>
<text text-anchor="start" x="1259.7812" y="-15.4" font-family="sans-serif" font-size="14.00" fill="#000000"> &#160;Bootstrap</text>
<polygon fill="#fdb462" stroke="transparent" points="1333,-10 1333,-30 1353,-30 1353,-10 1333,-10"/>
<text text-anchor="start" x="1356.6732" y="-15.4" font-family="sans-serif" font-size="14.00" fill="#000000"> &#160;Providers</text>
<polygon fill="#fb8072" stroke="transparent" points="1429,-10 1429,-30 1449,-30 1449,-10 1429,-10"/>
<text text-anchor="start" x="1452.7258" y="-15.4" font-family="sans-serif" font-size="14.00" fill="#000000"> &#160;Exports</text>
<g id="clust1" class="cluster">
<title>cluster_AccountModule</title>
<polygon fill="none" stroke="#000000" stroke-dasharray="1,5" points="8,-146 8,-282 452,-282 452,-146 8,-146"/>
</g>
<g id="clust2" class="cluster">
<title>cluster_AccountModule_declarations</title>
<polygon fill="none" stroke="#000000" points="16,-154 16,-206 152,-206 152,-154 16,-154"/>
</g>
<g id="clust4" class="cluster">
<title>cluster_AccountModule_imports</title>
<polygon fill="none" stroke="#000000" points="160,-154 160,-206 444,-206 444,-154 160,-154"/>
</g>
<g id="clust14" class="cluster">
<title>cluster_AppModule</title>
<polygon fill="none" stroke="#000000" stroke-dasharray="1,5" points="1081,-222 1081,-420 1593,-420 1593,-222 1081,-222"/>
</g>
<g id="clust15" class="cluster">
<title>cluster_AppModule_declarations</title>
<polygon fill="none" stroke="#000000" points="1463,-230 1463,-282 1585,-282 1585,-230 1463,-230"/>
</g>
<g id="clust17" class="cluster">
<title>cluster_AppModule_imports</title>
<polygon fill="none" stroke="#000000" points="1089,-230 1089,-282 1455,-282 1455,-230 1089,-230"/>
</g>
<g id="clust19" class="cluster">
<title>cluster_AppModule_bootstrap</title>
<polygon fill="none" stroke="#000000" points="1286,-360 1286,-412 1410,-412 1410,-360 1286,-360"/>
</g>
<g id="clust27" class="cluster">
<title>cluster_AuthenticationModule</title>
<polygon fill="none" stroke="#000000" stroke-dasharray="1,5" points="1868,-146 1868,-282 2534,-282 2534,-146 1868,-146"/>
</g>
<g id="clust28" class="cluster">
<title>cluster_AuthenticationModule_declarations</title>
<polygon fill="none" stroke="#000000" points="2088,-154 2088,-206 2526,-206 2526,-154 2088,-154"/>
</g>
<g id="clust32" class="cluster">
<title>cluster_AuthenticationModule_imports</title>
<polygon fill="none" stroke="#000000" points="1876,-154 1876,-206 2080,-206 2080,-154 1876,-154"/>
</g>
<g id="clust48" class="cluster">
<title>cluster_ProjectModule</title>
<polygon fill="none" stroke="#000000" stroke-dasharray="1,5" points="478,-146 478,-214 1860,-214 1860,-146 478,-146"/>
</g>
<g id="clust49" class="cluster">
<title>cluster_ProjectModule_declarations</title>
<polygon fill="none" stroke="#000000" points="644,-154 644,-206 1516,-206 1516,-154 644,-154"/>
</g>
<g id="clust55" class="cluster">
<title>cluster_ProjectModule_imports</title>
<polygon fill="none" stroke="#000000" points="1524,-154 1524,-206 1852,-206 1852,-154 1524,-154"/>
</g>
<g id="clust58" class="cluster">
<title>cluster_ProjectModule_providers</title>
<polygon fill="none" stroke="#000000" points="486,-154 486,-206 636,-206 636,-154 486,-154"/>
</g>
<g id="clust65" class="cluster">
<title>cluster_SharedModule</title>
<polygon fill="none" stroke="#000000" stroke-dasharray="1,5" points="460,-222 460,-290 1073,-290 1073,-222 460,-222"/>
</g>
<g id="clust66" class="cluster">
<title>cluster_SharedModule_declarations</title>
<polygon fill="none" stroke="#000000" points="774,-230 774,-282 1065,-282 1065,-230 774,-230"/>
</g>
<g id="clust70" class="cluster">
<title>cluster_SharedModule_exports</title>
<polygon fill="none" stroke="#000000" points="468,-230 468,-282 766,-282 766,-230 468,-230"/>
</g>
<g id="clust73" class="cluster">
<title>cluster_ZipFileExplorerModule</title>
<polygon fill="none" stroke="#000000" stroke-dasharray="1,5" points="1578,-70 1578,-138 1922,-138 1922,-70 1578,-70"/>
</g>
<g id="clust74" class="cluster">
<title>cluster_ZipFileExplorerModule_declarations</title>
<polygon fill="none" stroke="#000000" points="1586,-78 1586,-130 1914,-130 1914,-78 1586,-78"/>
</g>
<!-- ProfileComponent -->
<g id="node1" class="node">
<title>ProfileComponent</title>
<polygon fill="#ffffb3" stroke="#000000" points="143.9328,-198 24.0672,-198 24.0672,-162 143.9328,-162 143.9328,-198"/>
<text text-anchor="middle" x="84" y="-175.8" font-family="Times,serif" font-size="14.00" fill="#000000">ProfileComponent</text>
</g>
<!-- AccountModule -->
<g id="node2" class="node">
<title>AccountModule</title>
<polygon fill="#8dd3c7" stroke="#000000" points="297.4762,-274 294.4762,-278 273.4762,-278 270.4762,-274 190.5238,-274 190.5238,-238 297.4762,-238 297.4762,-274"/>
<text text-anchor="middle" x="244" y="-251.8" font-family="Times,serif" font-size="14.00" fill="#000000">AccountModule</text>
</g>
<!-- ProfileComponent&#45;&gt;AccountModule -->
<g id="edge1" class="edge">
<title>ProfileComponent&#45;&gt;AccountModule</title>
<path fill="none" stroke="#000000" d="M84,-198.0109C84,-220.4852 84,-256 84,-256 84,-256 180.2772,-256 180.2772,-256"/>
<polygon fill="#000000" stroke="#000000" points="180.2773,-259.5001 190.2772,-256 180.2772,-252.5001 180.2773,-259.5001"/>
</g>
<!-- AccountRoutingModule -->
<g id="node3" class="node">
<title>AccountRoutingModule</title>
<polygon fill="#8dd3c7" stroke="#000000" points="320.094,-198 317.094,-202 296.094,-202 293.094,-198 167.906,-198 167.906,-162 320.094,-162 320.094,-198"/>
<text text-anchor="middle" x="244" y="-175.8" font-family="Times,serif" font-size="14.00" fill="#000000">AccountRoutingModule</text>
</g>
<!-- AccountRoutingModule&#45;&gt;AccountModule -->
<g id="edge2" class="edge">
<title>AccountRoutingModule&#45;&gt;AccountModule</title>
<path fill="none" stroke="#000000" d="M244,-198.0109C244,-198.0109 244,-227.855 244,-227.855"/>
<polygon fill="#000000" stroke="#000000" points="240.5001,-227.8549 244,-237.855 247.5001,-227.855 240.5001,-227.8549"/>
</g>
<!-- SharedModule -->
<g id="node4" class="node">
<title>SharedModule</title>
<polygon fill="#8dd3c7" stroke="#000000" points="436.4231,-198 433.4231,-202 412.4231,-202 409.4231,-198 337.5769,-198 337.5769,-162 436.4231,-162 436.4231,-198"/>
<text text-anchor="middle" x="387" y="-175.8" font-family="Times,serif" font-size="14.00" fill="#000000">SharedModule</text>
</g>
<!-- SharedModule&#45;&gt;AccountModule -->
<g id="edge3" class="edge">
<title>SharedModule&#45;&gt;AccountModule</title>
<path fill="none" stroke="#000000" d="M422.1508,-198.0109C422.1508,-220.4852 422.1508,-256 422.1508,-256 422.1508,-256 307.9346,-256 307.9346,-256"/>
<polygon fill="#000000" stroke="#000000" points="307.9346,-252.5001 297.9346,-256 307.9345,-259.5001 307.9346,-252.5001"/>
</g>
<!-- ProjectModule -->
<g id="node9" class="node">
<title>ProjectModule</title>
<polygon fill="#8dd3c7" stroke="#000000" points="1342.7036,-274 1339.7036,-278 1318.7036,-278 1315.7036,-274 1243.2964,-274 1243.2964,-238 1342.7036,-238 1342.7036,-274"/>
<text text-anchor="middle" x="1293" y="-251.8" font-family="Times,serif" font-size="14.00" fill="#000000">ProjectModule</text>
</g>
<!-- SharedModule&#45;&gt;ProjectModule -->
<g id="edge20" class="edge">
<title>SharedModule&#45;&gt;ProjectModule</title>
<path fill="none" stroke="#000000" d="M394.0302,-198.1804C394.0302,-211.0382 394.0302,-226 394.0302,-226 394.0302,-226 1254.4209,-226 1254.4209,-226 1254.4209,-226 1254.4209,-227.8568 1254.4209,-227.8568"/>
<polygon fill="#000000" stroke="#000000" points="1250.921,-227.8568 1254.4209,-237.8568 1257.921,-227.8568 1250.921,-227.8568"/>
</g>
<!-- AuthenticationModule -->
<g id="node14" class="node">
<title>AuthenticationModule</title>
<polygon fill="#8dd3c7" stroke="#000000" points="2242.2534,-274 2239.2534,-278 2218.2534,-278 2215.2534,-274 2099.7466,-274 2099.7466,-238 2242.2534,-238 2242.2534,-274"/>
<text text-anchor="middle" x="2171" y="-251.8" font-family="Times,serif" font-size="14.00" fill="#000000">AuthenticationModule</text>
</g>
<!-- SharedModule&#45;&gt;AuthenticationModule -->
<g id="edge13" class="edge">
<title>SharedModule&#45;&gt;AuthenticationModule</title>
<path fill="none" stroke="#000000" d="M408.0905,-198.1679C408.0905,-200.4478 408.0905,-202 408.0905,-202 408.0905,-202 2147.2078,-202 2147.2078,-202 2147.2078,-202 2147.2078,-227.7181 2147.2078,-227.7181"/>
<polygon fill="#000000" stroke="#000000" points="2143.7079,-227.718 2147.2078,-237.7181 2150.7079,-227.7181 2143.7079,-227.718"/>
</g>
<!-- AppLogoComponent  -->
<g id="node26" class="node">
<title>AppLogoComponent </title>
<polygon fill="#fb8072" stroke="#000000" points="758.4925,-274 619.5075,-274 619.5075,-238 758.4925,-238 758.4925,-274"/>
<text text-anchor="middle" x="689" y="-251.8" font-family="Times,serif" font-size="14.00" fill="#000000">AppLogoComponent </text>
</g>
<!-- SharedModule&#45;&gt;AppLogoComponent  -->
<g id="edge25" class="edge">
<title>SharedModule&#45;&gt;AppLogoComponent </title>
<path fill="none" stroke="#000000" stroke-dasharray="5,2" d="M379.9698,-198.0091C379.9698,-214.0494 379.9698,-235 379.9698,-235 379.9698,-235 624.0492,-235 624.0492,-235 624.0492,-235 624.0492,-235.292 624.0492,-235.292"/>
<polygon fill="#000000" stroke="#000000" points="620.5496,-227.9198 624.0492,-237.92 627.5496,-227.9201 620.5496,-227.9198"/>
</g>
<!-- NavbarComponent  -->
<g id="node27" class="node">
<title>NavbarComponent </title>
<polygon fill="#fb8072" stroke="#000000" points="602.0288,-274 475.9712,-274 475.9712,-238 602.0288,-238 602.0288,-274"/>
<text text-anchor="middle" x="539" y="-251.8" font-family="Times,serif" font-size="14.00" fill="#000000">NavbarComponent </text>
</g>
<!-- SharedModule&#45;&gt;NavbarComponent  -->
<g id="edge26" class="edge">
<title>SharedModule&#45;&gt;NavbarComponent </title>
<path fill="none" stroke="#000000" stroke-dasharray="5,2" d="M436.4835,-180C460.7461,-180 484.8207,-180 484.8207,-180 484.8207,-180 484.8207,-227.9891 484.8207,-227.9891"/>
<polygon fill="#000000" stroke="#000000" points="481.3208,-227.989 484.8207,-237.9891 488.3208,-227.9891 481.3208,-227.989"/>
</g>
<!-- AppComponent -->
<g id="node5" class="node">
<title>AppComponent</title>
<polygon fill="#ffffb3" stroke="#000000" points="1576.9399,-274 1471.0601,-274 1471.0601,-238 1576.9399,-238 1576.9399,-274"/>
<text text-anchor="middle" x="1524" y="-251.8" font-family="Times,serif" font-size="14.00" fill="#000000">AppComponent</text>
</g>
<!-- AppModule -->
<g id="node6" class="node">
<title>AppModule</title>
<polygon fill="#8dd3c7" stroke="#000000" points="1389.6571,-339 1386.6571,-343 1365.6571,-343 1362.6571,-339 1306.3429,-339 1306.3429,-303 1389.6571,-303 1389.6571,-339"/>
<text text-anchor="middle" x="1348" y="-316.8" font-family="Times,serif" font-size="14.00" fill="#000000">AppModule</text>
</g>
<!-- AppComponent&#45;&gt;AppModule -->
<g id="edge4" class="edge">
<title>AppComponent&#45;&gt;AppModule</title>
<path fill="none" stroke="#000000" d="M1524,-274.1061C1524,-293.3391 1524,-321 1524,-321 1524,-321 1399.7095,-321 1399.7095,-321"/>
<polygon fill="#000000" stroke="#000000" points="1399.7096,-317.5001 1389.7095,-321 1399.7095,-324.5001 1399.7096,-317.5001"/>
</g>
<!-- AppComponent  -->
<g id="node10" class="node">
<title>AppComponent </title>
<polygon fill="#80b1d3" stroke="#000000" points="1402.439,-404 1293.561,-404 1293.561,-368 1402.439,-368 1402.439,-404"/>
<text text-anchor="middle" x="1348" y="-381.8" font-family="Times,serif" font-size="14.00" fill="#000000">AppComponent </text>
</g>
<!-- AppModule&#45;&gt;AppComponent  -->
<g id="edge8" class="edge">
<title>AppModule&#45;&gt;AppComponent </title>
<path fill="none" stroke="#000000" stroke-dasharray="1,5" d="M1348,-339.1061C1348,-339.1061 1348,-357.991 1348,-357.991"/>
<polygon fill="#000000" stroke="#000000" points="1344.5001,-357.9909 1348,-367.991 1351.5001,-357.991 1344.5001,-357.9909"/>
</g>
<!-- AppRoutingModule -->
<g id="node7" class="node">
<title>AppRoutingModule</title>
<polygon fill="#8dd3c7" stroke="#000000" points="1225.2744,-274 1222.2744,-278 1201.2744,-278 1198.2744,-274 1096.7256,-274 1096.7256,-238 1225.2744,-238 1225.2744,-274"/>
<text text-anchor="middle" x="1161" y="-251.8" font-family="Times,serif" font-size="14.00" fill="#000000">AppRoutingModule</text>
</g>
<!-- AppRoutingModule&#45;&gt;AppModule -->
<g id="edge5" class="edge">
<title>AppRoutingModule&#45;&gt;AppModule</title>
<path fill="none" stroke="#000000" d="M1161,-274.1061C1161,-293.3391 1161,-321 1161,-321 1161,-321 1296.0335,-321 1296.0335,-321"/>
<polygon fill="#000000" stroke="#000000" points="1296.0336,-324.5001 1306.0335,-321 1296.0335,-317.5001 1296.0336,-324.5001"/>
</g>
<!-- CoreModule -->
<g id="node8" class="node">
<title>CoreModule</title>
<polygon fill="#8dd3c7" stroke="#000000" points="1447.2619,-274 1444.2619,-278 1423.2619,-278 1420.2619,-274 1360.7381,-274 1360.7381,-238 1447.2619,-238 1447.2619,-274"/>
<text text-anchor="middle" x="1404" y="-251.8" font-family="Times,serif" font-size="14.00" fill="#000000">CoreModule</text>
</g>
<!-- CoreModule&#45;&gt;AppModule -->
<g id="edge6" class="edge">
<title>CoreModule&#45;&gt;AppModule</title>
<path fill="none" stroke="#000000" d="M1375.2237,-274.1061C1375.2237,-274.1061 1375.2237,-292.991 1375.2237,-292.991"/>
<polygon fill="#000000" stroke="#000000" points="1371.7238,-292.9909 1375.2237,-302.991 1378.7238,-292.991 1371.7238,-292.9909"/>
</g>
<!-- ZipFileExplorerModule -->
<g id="node22" class="node">
<title>ZipFileExplorerModule</title>
<polygon fill="#8dd3c7" stroke="#000000" points="1843.7506,-198 1840.7506,-202 1819.7506,-202 1816.7506,-198 1694.2494,-198 1694.2494,-162 1843.7506,-162 1843.7506,-198"/>
<text text-anchor="middle" x="1769" y="-175.8" font-family="Times,serif" font-size="14.00" fill="#000000">ZipFileExplorerModule</text>
</g>
<!-- CoreModule&#45;&gt;ZipFileExplorerModule -->
<g id="edge30" class="edge">
<title>CoreModule&#45;&gt;ZipFileExplorerModule</title>
<path fill="none" stroke="#000000" d="M1406.5014,-237.9561C1406.5014,-225.4367 1406.5014,-211 1406.5014,-211 1406.5014,-211 1793.9584,-211 1793.9584,-211 1793.9584,-211 1793.9584,-208.0328 1793.9584,-208.0328"/>
<polygon fill="#000000" stroke="#000000" points="1797.4585,-208.0328 1793.9584,-198.0328 1790.4585,-208.0329 1797.4585,-208.0328"/>
</g>
<!-- ProjectModule&#45;&gt;AppModule -->
<g id="edge7" class="edge">
<title>ProjectModule&#45;&gt;AppModule</title>
<path fill="none" stroke="#000000" d="M1324.3868,-274.1061C1324.3868,-274.1061 1324.3868,-292.991 1324.3868,-292.991"/>
<polygon fill="#000000" stroke="#000000" points="1320.8868,-292.9909 1324.3868,-302.991 1327.8868,-292.991 1320.8868,-292.9909"/>
</g>
<!-- LoginComponent -->
<g id="node11" class="node">
<title>LoginComponent</title>
<polygon fill="#ffffb3" stroke="#000000" points="2518.2758,-198 2403.7242,-198 2403.7242,-162 2518.2758,-162 2518.2758,-198"/>
<text text-anchor="middle" x="2461" y="-175.8" font-family="Times,serif" font-size="14.00" fill="#000000">LoginComponent</text>
</g>
<!-- LoginComponent&#45;&gt;AuthenticationModule -->
<g id="edge9" class="edge">
<title>LoginComponent&#45;&gt;AuthenticationModule</title>
<path fill="none" stroke="#000000" d="M2461,-198.1985C2461,-222.3563 2461,-262 2461,-262 2461,-262 2252.3134,-262 2252.3134,-262"/>
<polygon fill="#000000" stroke="#000000" points="2252.3134,-258.5001 2242.3134,-262 2252.3134,-265.5001 2252.3134,-258.5001"/>
</g>
<!-- LogoutComponent -->
<g id="node12" class="node">
<title>LogoutComponent</title>
<polygon fill="#ffffb3" stroke="#000000" points="2385.7758,-198 2264.2242,-198 2264.2242,-162 2385.7758,-162 2385.7758,-198"/>
<text text-anchor="middle" x="2325" y="-175.8" font-family="Times,serif" font-size="14.00" fill="#000000">LogoutComponent</text>
</g>
<!-- LogoutComponent&#45;&gt;AuthenticationModule -->
<g id="edge10" class="edge">
<title>LogoutComponent&#45;&gt;AuthenticationModule</title>
<path fill="none" stroke="#000000" d="M2325,-198.0267C2325,-218.7672 2325,-250 2325,-250 2325,-250 2252.5899,-250 2252.5899,-250"/>
<polygon fill="#000000" stroke="#000000" points="2252.5899,-246.5001 2242.5899,-250 2252.5899,-253.5001 2252.5899,-246.5001"/>
</g>
<!-- RegistrationComponent -->
<g id="node13" class="node">
<title>RegistrationComponent</title>
<polygon fill="#ffffb3" stroke="#000000" points="2245.766,-198 2096.234,-198 2096.234,-162 2245.766,-162 2245.766,-198"/>
<text text-anchor="middle" x="2171" y="-175.8" font-family="Times,serif" font-size="14.00" fill="#000000">RegistrationComponent</text>
</g>
<!-- RegistrationComponent&#45;&gt;AuthenticationModule -->
<g id="edge11" class="edge">
<title>RegistrationComponent&#45;&gt;AuthenticationModule</title>
<path fill="none" stroke="#000000" d="M2194.7922,-198.0109C2194.7922,-198.0109 2194.7922,-227.855 2194.7922,-227.855"/>
<polygon fill="#000000" stroke="#000000" points="2191.2923,-227.8549 2194.7922,-237.855 2198.2923,-227.855 2191.2923,-227.8549"/>
</g>
<!-- AuthenticationRoutingModule -->
<g id="node15" class="node">
<title>AuthenticationRoutingModule</title>
<polygon fill="#8dd3c7" stroke="#000000" points="2071.871,-198 2068.871,-202 2047.871,-202 2044.871,-198 1884.129,-198 1884.129,-162 2071.871,-162 2071.871,-198"/>
<text text-anchor="middle" x="1978" y="-175.8" font-family="Times,serif" font-size="14.00" fill="#000000">AuthenticationRoutingModule</text>
</g>
<!-- AuthenticationRoutingModule&#45;&gt;AuthenticationModule -->
<g id="edge12" class="edge">
<title>AuthenticationRoutingModule&#45;&gt;AuthenticationModule</title>
<path fill="none" stroke="#000000" d="M1978,-198.0109C1978,-220.4852 1978,-256 1978,-256 1978,-256 2089.6823,-256 2089.6823,-256"/>
<polygon fill="#000000" stroke="#000000" points="2089.6823,-259.5001 2099.6823,-256 2089.6822,-252.5001 2089.6823,-259.5001"/>
</g>
<!-- HomePageComponent -->
<g id="node16" class="node">
<title>HomePageComponent</title>
<polygon fill="#ffffb3" stroke="#000000" points="1508.2562,-198 1365.7438,-198 1365.7438,-162 1508.2562,-162 1508.2562,-198"/>
<text text-anchor="middle" x="1437" y="-175.8" font-family="Times,serif" font-size="14.00" fill="#000000">HomePageComponent</text>
</g>
<!-- HomePageComponent&#45;&gt;ProjectModule -->
<g id="edge14" class="edge">
<title>HomePageComponent&#45;&gt;ProjectModule</title>
<path fill="none" stroke="#000000" d="M1365.5044,-180C1358.7486,-180 1354.3591,-180 1354.3591,-180 1354.3591,-180 1354.3591,-256 1354.3591,-256 1354.3591,-256 1352.8179,-256 1352.8179,-256"/>
<polygon fill="#000000" stroke="#000000" points="1352.8179,-252.5001 1342.8179,-256 1352.8178,-259.5001 1352.8179,-252.5001"/>
</g>
<!-- ProjectCardComponent -->
<g id="node17" class="node">
<title>ProjectCardComponent</title>
<polygon fill="#ffffb3" stroke="#000000" points="1348.1979,-198 1199.8021,-198 1199.8021,-162 1348.1979,-162 1348.1979,-198"/>
<text text-anchor="middle" x="1274" y="-175.8" font-family="Times,serif" font-size="14.00" fill="#000000">ProjectCardComponent</text>
</g>
<!-- ProjectCardComponent&#45;&gt;ProjectModule -->
<g id="edge15" class="edge">
<title>ProjectCardComponent&#45;&gt;ProjectModule</title>
<path fill="none" stroke="#000000" d="M1309.5339,-198.0109C1309.5339,-198.0109 1309.5339,-227.855 1309.5339,-227.855"/>
<polygon fill="#000000" stroke="#000000" points="1306.034,-227.8549 1309.5339,-237.855 1313.034,-227.855 1306.034,-227.8549"/>
</g>
<!-- ProjectSubmissionComponent -->
<g id="node18" class="node">
<title>ProjectSubmissionComponent</title>
<polygon fill="#ffffb3" stroke="#000000" points="1182.3299,-198 995.6701,-198 995.6701,-162 1182.3299,-162 1182.3299,-198"/>
<text text-anchor="middle" x="1089" y="-175.8" font-family="Times,serif" font-size="14.00" fill="#000000">ProjectSubmissionComponent</text>
</g>
<!-- ProjectSubmissionComponent&#45;&gt;ProjectModule -->
<g id="edge16" class="edge">
<title>ProjectSubmissionComponent&#45;&gt;ProjectModule</title>
<path fill="none" stroke="#000000" d="M1139.3889,-198.1944C1139.3889,-206.2782 1139.3889,-214 1139.3889,-214 1139.3889,-214 1298.5113,-214 1298.5113,-214 1298.5113,-214 1298.5113,-227.9445 1298.5113,-227.9445"/>
<polygon fill="#000000" stroke="#000000" points="1295.0114,-227.9444 1298.5113,-237.9445 1302.0114,-227.9445 1295.0114,-227.9444"/>
</g>
<!-- UserActionsComponent -->
<g id="node19" class="node">
<title>UserActionsComponent</title>
<polygon fill="#ffffb3" stroke="#000000" points="977.8061,-198 826.1939,-198 826.1939,-162 977.8061,-162 977.8061,-198"/>
<text text-anchor="middle" x="902" y="-175.8" font-family="Times,serif" font-size="14.00" fill="#000000">UserActionsComponent</text>
</g>
<!-- UserActionsComponent&#45;&gt;ProjectModule -->
<g id="edge17" class="edge">
<title>UserActionsComponent&#45;&gt;ProjectModule</title>
<path fill="none" stroke="#000000" d="M959.27,-198.0664C959.27,-207.4587 959.27,-217 959.27,-217 959.27,-217 1287.4887,-217 1287.4887,-217 1287.4887,-217 1287.4887,-227.8701 1287.4887,-227.8701"/>
<polygon fill="#000000" stroke="#000000" points="1283.9888,-227.8701 1287.4887,-237.8701 1290.9888,-227.8701 1283.9888,-227.8701"/>
</g>
<!-- ViewProjectsComponent -->
<g id="node20" class="node">
<title>ViewProjectsComponent</title>
<polygon fill="#ffffb3" stroke="#000000" points="808.2492,-198 651.7508,-198 651.7508,-162 808.2492,-162 808.2492,-198"/>
<text text-anchor="middle" x="730" y="-175.8" font-family="Times,serif" font-size="14.00" fill="#000000">ViewProjectsComponent</text>
</g>
<!-- ViewProjectsComponent&#45;&gt;ProjectModule -->
<g id="edge18" class="edge">
<title>ViewProjectsComponent&#45;&gt;ProjectModule</title>
<path fill="none" stroke="#000000" d="M799.4949,-198.1274C799.4949,-208.7109 799.4949,-220 799.4949,-220 799.4949,-220 1276.4661,-220 1276.4661,-220 1276.4661,-220 1276.4661,-227.5782 1276.4661,-227.5782"/>
<polygon fill="#000000" stroke="#000000" points="1272.9662,-227.5781 1276.4661,-237.5782 1279.9662,-227.5782 1272.9662,-227.5781"/>
</g>
<!-- ProjectRoutingModule -->
<g id="node21" class="node">
<title>ProjectRoutingModule</title>
<polygon fill="#8dd3c7" stroke="#000000" points="1676.3216,-198 1673.3216,-202 1652.3216,-202 1649.3216,-198 1531.6784,-198 1531.6784,-162 1676.3216,-162 1676.3216,-198"/>
<text text-anchor="middle" x="1604" y="-175.8" font-family="Times,serif" font-size="14.00" fill="#000000">ProjectRoutingModule</text>
</g>
<!-- ProjectRoutingModule&#45;&gt;ProjectModule -->
<g id="edge19" class="edge">
<title>ProjectRoutingModule&#45;&gt;ProjectModule</title>
<path fill="none" stroke="#000000" d="M1554.2795,-198.1686C1554.2795,-202.0459 1554.2795,-205 1554.2795,-205 1554.2795,-205 1320.5565,-205 1320.5565,-205 1320.5565,-205 1320.5565,-227.8757 1320.5565,-227.8757"/>
<polygon fill="#000000" stroke="#000000" points="1317.0566,-227.8757 1320.5565,-237.8757 1324.0566,-227.8757 1317.0566,-227.8757"/>
</g>
<!-- ZipFileExplorerModule&#45;&gt;ProjectModule -->
<g id="edge21" class="edge">
<title>ZipFileExplorerModule&#45;&gt;ProjectModule</title>
<path fill="none" stroke="#000000" d="M1744.0416,-198.207C1744.0416,-203.5549 1744.0416,-208 1744.0416,-208 1744.0416,-208 1331.5791,-208 1331.5791,-208 1331.5791,-208 1331.5791,-227.8533 1331.5791,-227.8533"/>
<polygon fill="#000000" stroke="#000000" points="1328.0792,-227.8532 1331.5791,-237.8533 1335.0792,-227.8533 1328.0792,-227.8532"/>
</g>
<!-- ProjectService -->
<g id="node23" class="node">
<title>ProjectService</title>
<ellipse fill="#fdb462" stroke="#000000" cx="561" cy="-180" rx="67.1888" ry="18"/>
<text text-anchor="middle" x="561" y="-175.8" font-family="Times,serif" font-size="14.00" fill="#000000">ProjectService</text>
</g>
<!-- ProjectService&#45;&gt;ProjectModule -->
<g id="edge22" class="edge">
<title>ProjectService&#45;&gt;ProjectModule</title>
<path fill="none" stroke="#000000" d="M610.8843,-192.2071C610.8843,-204.9197 610.8843,-223 610.8843,-223 610.8843,-223 1265.4435,-223 1265.4435,-223 1265.4435,-223 1265.4435,-227.9551 1265.4435,-227.9551"/>
<polygon fill="#000000" stroke="#000000" points="1261.9436,-227.9551 1265.4435,-237.9551 1268.9436,-227.9552 1261.9436,-227.9551"/>
</g>
<!-- AppLogoComponent -->
<g id="node24" class="node">
<title>AppLogoComponent</title>
<polygon fill="#ffffb3" stroke="#000000" points="1057.4916,-274 922.5084,-274 922.5084,-238 1057.4916,-238 1057.4916,-274"/>
<text text-anchor="middle" x="990" y="-251.8" font-family="Times,serif" font-size="14.00" fill="#000000">AppLogoComponent</text>
</g>
<!-- AppLogoComponent&#45;&gt;SharedModule -->
<g id="edge23" class="edge">
<title>AppLogoComponent&#45;&gt;SharedModule</title>
<path fill="none" stroke="#000000" d="M940.8871,-237.8408C940.8871,-232.9567 940.8871,-229 940.8871,-229 940.8871,-229 365.9095,-229 365.9095,-229 365.9095,-229 365.9095,-208.2458 365.9095,-208.2458"/>
<polygon fill="#000000" stroke="#000000" points="369.4096,-208.2458 365.9095,-198.2458 362.4096,-208.2458 369.4096,-208.2458"/>
</g>
<!-- NavbarComponent -->
<g id="node25" class="node">
<title>NavbarComponent</title>
<polygon fill="#ffffb3" stroke="#000000" points="904.0297,-274 781.9703,-274 781.9703,-238 904.0297,-238 904.0297,-274"/>
<text text-anchor="middle" x="843" y="-251.8" font-family="Times,serif" font-size="14.00" fill="#000000">NavbarComponent</text>
</g>
<!-- NavbarComponent&#45;&gt;SharedModule -->
<g id="edge24" class="edge">
<title>NavbarComponent&#45;&gt;SharedModule</title>
<path fill="none" stroke="#000000" d="M790.6152,-237.8097C790.6152,-234.4624 790.6152,-232 790.6152,-232 790.6152,-232 351.8492,-232 351.8492,-232 351.8492,-232 351.8492,-208.1871 351.8492,-208.1871"/>
<polygon fill="#000000" stroke="#000000" points="355.3493,-208.187 351.8492,-198.1871 348.3493,-208.1871 355.3493,-208.187"/>
</g>
<!-- LexPipe -->
<g id="node28" class="node">
<title>LexPipe</title>
<polygon fill="#ffffb3" stroke="#000000" points="1906.1559,-122 1843.8441,-122 1843.8441,-86 1906.1559,-86 1906.1559,-122"/>
<text text-anchor="middle" x="1875" y="-99.8" font-family="Times,serif" font-size="14.00" fill="#000000">LexPipe</text>
</g>
<!-- LexPipe&#45;&gt;ZipFileExplorerModule -->
<g id="edge27" class="edge">
<title>LexPipe&#45;&gt;ZipFileExplorerModule</title>
<path fill="none" stroke="#000000" d="M1843.4422,-104C1838.206,-104 1834.4408,-104 1834.4408,-104 1834.4408,-104 1834.4408,-151.9891 1834.4408,-151.9891"/>
<polygon fill="#000000" stroke="#000000" points="1830.9408,-151.989 1834.4408,-161.9891 1837.9408,-151.9891 1830.9408,-151.989"/>
</g>
<!-- LineNumberPipe -->
<g id="node29" class="node">
<title>LineNumberPipe</title>
<polygon fill="#ffffb3" stroke="#000000" points="1825.4188,-122 1712.5812,-122 1712.5812,-86 1825.4188,-86 1825.4188,-122"/>
<text text-anchor="middle" x="1769" y="-99.8" font-family="Times,serif" font-size="14.00" fill="#000000">LineNumberPipe</text>
</g>
<!-- LineNumberPipe&#45;&gt;ZipFileExplorerModule -->
<g id="edge28" class="edge">
<title>LineNumberPipe&#45;&gt;ZipFileExplorerModule</title>
<path fill="none" stroke="#000000" d="M1769,-122.0109C1769,-122.0109 1769,-151.855 1769,-151.855"/>
<polygon fill="#000000" stroke="#000000" points="1765.5001,-151.8549 1769,-161.855 1772.5001,-151.855 1765.5001,-151.8549"/>
</g>
<!-- ZipComponent -->
<g id="node30" class="node">
<title>ZipComponent</title>
<polygon fill="#ffffb3" stroke="#000000" points="1694.2758,-122 1593.7242,-122 1593.7242,-86 1694.2758,-86 1694.2758,-122"/>
<text text-anchor="middle" x="1644" y="-99.8" font-family="Times,serif" font-size="14.00" fill="#000000">ZipComponent</text>
</g>
<!-- ZipComponent&#45;&gt;ZipFileExplorerModule -->
<g id="edge29" class="edge">
<title>ZipComponent&#45;&gt;ZipFileExplorerModule</title>
<path fill="none" stroke="#000000" d="M1685.1427,-122.0109C1685.1427,-144.4852 1685.1427,-180 1685.1427,-180 1685.1427,-180 1686.0401,-180 1686.0401,-180"/>
<polygon fill="#000000" stroke="#000000" points="1684.1169,-183.5001 1694.1169,-180 1684.1169,-176.5001 1684.1169,-183.5001"/>
</g>
</g>
</svg>
