<?xml version="1.0" encoding="UTF-8" standalone="no"?>
<!DOCTYPE svg PUBLIC "-//W3C//DTD SVG 1.1//EN"
 "http://www.w3.org/Graphics/SVG/1.1/DTD/svg11.dtd">
<!-- Generated by graphviz version 2.40.1 (20161225.0304)
 -->
<!-- Title: dependencies Pages: 1 -->
<svg width="1522pt" height="211pt"
 viewBox="0.00 0.00 1522.00 211.00" xmlns="http://www.w3.org/2000/svg" xmlns:xlink="http://www.w3.org/1999/xlink">
<g id="graph0" class="graph" transform="scale(1 1) rotate(0) translate(4 207)">
<title>dependencies</title>
<polygon fill="#ffffff" stroke="transparent" points="-4,4 -4,-207 1518,-207 1518,4 -4,4"/>
<text text-anchor="start" x="736.0091" y="-42.4" font-family="sans-serif" font-weight="bold" font-size="14.00" fill="#000000">Legend</text>
<polygon fill="#ffffb3" stroke="transparent" points="523,-10 523,-30 543,-30 543,-10 523,-10"/>
<text text-anchor="start" x="546.629" y="-15.4" font-family="sans-serif" font-size="14.00" fill="#000000"> &#160;Declarations</text>
<polygon fill="#8dd3c7" stroke="transparent" points="636,-10 636,-30 656,-30 656,-10 636,-10"/>
<text text-anchor="start" x="659.7251" y="-15.4" font-family="sans-serif" font-size="14.00" fill="#000000"> &#160;Module</text>
<polygon fill="#80b1d3" stroke="transparent" points="722,-10 722,-30 742,-30 742,-10 722,-10"/>
<text text-anchor="start" x="745.7812" y="-15.4" font-family="sans-serif" font-size="14.00" fill="#000000"> &#160;Bootstrap</text>
<polygon fill="#fdb462" stroke="transparent" points="819,-10 819,-30 839,-30 839,-10 819,-10"/>
<text text-anchor="start" x="842.6732" y="-15.4" font-family="sans-serif" font-size="14.00" fill="#000000"> &#160;Providers</text>
<polygon fill="#fb8072" stroke="transparent" points="915,-10 915,-30 935,-30 935,-10 915,-10"/>
<text text-anchor="start" x="938.7258" y="-15.4" font-family="sans-serif" font-size="14.00" fill="#000000"> &#160;Exports</text>
<g id="clust1" class="cluster">
<title>cluster_ProjectModule</title>
<polygon fill="none" stroke="#000000" stroke-dasharray="1,5" points="8,-70 8,-195 1506,-195 1506,-70 8,-70"/>
</g>
<g id="clust2" class="cluster">
<title>cluster_ProjectModule_declarations</title>
<polygon fill="none" stroke="#000000" points="626,-78 626,-130 1498,-130 1498,-78 626,-78"/>
</g>
<g id="clust8" class="cluster">
<title>cluster_ProjectModule_imports</title>
<polygon fill="none" stroke="#000000" points="174,-78 174,-130 618,-130 618,-78 174,-78"/>
</g>
<g id="clust11" class="cluster">
<title>cluster_ProjectModule_providers</title>
<polygon fill="none" stroke="#000000" points="16,-78 16,-130 166,-130 166,-78 16,-78"/>
</g>
<!-- HomePageComponent -->
<g id="node1" class="node">
<title>HomePageComponent</title>
<polygon fill="#ffffb3" stroke="#000000" points="1490.2562,-122 1347.7438,-122 1347.7438,-86 1490.2562,-86 1490.2562,-122"/>
<text text-anchor="middle" x="1419" y="-99.8" font-family="Times,serif" font-size="14.00" fill="#000000">HomePageComponent</text>
</g>
<!-- ProjectModule -->
<g id="node6" class="node">
<title>ProjectModule</title>
<polygon fill="#8dd3c7" stroke="#000000" points="761.7036,-187 758.7036,-191 737.7036,-191 734.7036,-187 662.2964,-187 662.2964,-151 761.7036,-151 761.7036,-187"/>
<text text-anchor="middle" x="712" y="-164.8" font-family="Times,serif" font-size="14.00" fill="#000000">ProjectModule</text>
</g>
<!-- HomePageComponent&#45;&gt;ProjectModule -->
<g id="edge1" class="edge">
<title>HomePageComponent&#45;&gt;ProjectModule</title>
<path fill="none" stroke="#000000" d="M1419,-122.0109C1419,-144.4852 1419,-180 1419,-180 1419,-180 771.7149,-180 771.7149,-180"/>
<polygon fill="#000000" stroke="#000000" points="771.7149,-176.5001 761.7149,-180 771.7148,-183.5001 771.7149,-176.5001"/>
</g>
<!-- ProjectCardComponent -->
<g id="node2" class="node">
<title>ProjectCardComponent</title>
<polygon fill="#ffffb3" stroke="#000000" points="1330.1979,-122 1181.8021,-122 1181.8021,-86 1330.1979,-86 1330.1979,-122"/>
<text text-anchor="middle" x="1256" y="-99.8" font-family="Times,serif" font-size="14.00" fill="#000000">ProjectCardComponent</text>
</g>
<!-- ProjectCardComponent&#45;&gt;ProjectModule -->
<g id="edge2" class="edge">
<title>ProjectCardComponent&#45;&gt;ProjectModule</title>
<path fill="none" stroke="#000000" d="M1256,-122.1289C1256,-142.5724 1256,-173 1256,-173 1256,-173 771.7185,-173 771.7185,-173"/>
<polygon fill="#000000" stroke="#000000" points="771.7185,-169.5001 761.7185,-173 771.7185,-176.5001 771.7185,-169.5001"/>
</g>
<!-- ProjectSubmissionComponent -->
<g id="node3" class="node">
<title>ProjectSubmissionComponent</title>
<polygon fill="#ffffb3" stroke="#000000" points="1164.3299,-122 977.6701,-122 977.6701,-86 1164.3299,-86 1164.3299,-122"/>
<text text-anchor="middle" x="1071" y="-99.8" font-family="Times,serif" font-size="14.00" fill="#000000">ProjectSubmissionComponent</text>
</g>
<!-- ProjectSubmissionComponent&#45;&gt;ProjectModule -->
<g id="edge3" class="edge">
<title>ProjectSubmissionComponent&#45;&gt;ProjectModule</title>
<path fill="none" stroke="#000000" d="M1071,-122.2667C1071,-140.5552 1071,-166 1071,-166 1071,-166 771.9174,-166 771.9174,-166"/>
<polygon fill="#000000" stroke="#000000" points="771.9174,-162.5001 761.9174,-166 771.9174,-169.5001 771.9174,-162.5001"/>
</g>
<!-- UserActionsComponent -->
<g id="node4" class="node">
<title>UserActionsComponent</title>
<polygon fill="#ffffb3" stroke="#000000" points="959.8061,-122 808.1939,-122 808.1939,-86 959.8061,-86 959.8061,-122"/>
<text text-anchor="middle" x="884" y="-99.8" font-family="Times,serif" font-size="14.00" fill="#000000">UserActionsComponent</text>
</g>
<!-- UserActionsComponent&#45;&gt;ProjectModule -->
<g id="edge4" class="edge">
<title>UserActionsComponent&#45;&gt;ProjectModule</title>
<path fill="none" stroke="#000000" d="M884,-122.0091C884,-138.0494 884,-159 884,-159 884,-159 771.7495,-159 771.7495,-159"/>
<polygon fill="#000000" stroke="#000000" points="771.7496,-155.5001 761.7495,-159 771.7495,-162.5001 771.7496,-155.5001"/>
</g>
<!-- ViewProjectsComponent -->
<g id="node5" class="node">
<title>ViewProjectsComponent</title>
<polygon fill="#ffffb3" stroke="#000000" points="790.2492,-122 633.7508,-122 633.7508,-86 790.2492,-86 790.2492,-122"/>
<text text-anchor="middle" x="712" y="-99.8" font-family="Times,serif" font-size="14.00" fill="#000000">ViewProjectsComponent</text>
</g>
<!-- ViewProjectsComponent&#45;&gt;ProjectModule -->
<g id="edge5" class="edge">
<title>ViewProjectsComponent&#45;&gt;ProjectModule</title>
<path fill="none" stroke="#000000" d="M712,-122.1061C712,-122.1061 712,-140.991 712,-140.991"/>
<polygon fill="#000000" stroke="#000000" points="708.5001,-140.9909 712,-150.991 715.5001,-140.991 708.5001,-140.9909"/>
</g>
<!-- ProjectRoutingModule -->
<g id="node7" class="node">
<title>ProjectRoutingModule</title>
<polygon fill="#8dd3c7" stroke="#000000" points="610.3216,-122 607.3216,-126 586.3216,-126 583.3216,-122 465.6784,-122 465.6784,-86 610.3216,-86 610.3216,-122"/>
<text text-anchor="middle" x="538" y="-99.8" font-family="Times,serif" font-size="14.00" fill="#000000">ProjectRoutingModule</text>
</g>
<!-- ProjectRoutingModule&#45;&gt;ProjectModule -->
<g id="edge6" class="edge">
<title>ProjectRoutingModule&#45;&gt;ProjectModule</title>
<path fill="none" stroke="#000000" d="M538,-122.0091C538,-138.0494 538,-159 538,-159 538,-159 652.1386,-159 652.1386,-159"/>
<polygon fill="#000000" stroke="#000000" points="652.1386,-162.5001 662.1386,-159 652.1385,-155.5001 652.1386,-162.5001"/>
</g>
<!-- SharedModule -->
<g id="node8" class="node">
<title>SharedModule</title>
<polygon fill="#8dd3c7" stroke="#000000" points="448.4231,-122 445.4231,-126 424.4231,-126 421.4231,-122 349.5769,-122 349.5769,-86 448.4231,-86 448.4231,-122"/>
<text text-anchor="middle" x="399" y="-99.8" font-family="Times,serif" font-size="14.00" fill="#000000">SharedModule</text>
</g>
<!-- SharedModule&#45;&gt;ProjectModule -->
<g id="edge7" class="edge">
<title>SharedModule&#45;&gt;ProjectModule</title>
<path fill="none" stroke="#000000" d="M399,-122.2667C399,-140.5552 399,-166 399,-166 399,-166 652.0581,-166 652.0581,-166"/>
<polygon fill="#000000" stroke="#000000" points="652.0582,-169.5001 662.0581,-166 652.0581,-162.5001 652.0582,-169.5001"/>
</g>
<!-- ZipFileExplorerModule -->
<g id="node9" class="node">
<title>ZipFileExplorerModule</title>
<polygon fill="#8dd3c7" stroke="#000000" points="331.7506,-122 328.7506,-126 307.7506,-126 304.7506,-122 182.2494,-122 182.2494,-86 331.7506,-86 331.7506,-122"/>
<text text-anchor="middle" x="257" y="-99.8" font-family="Times,serif" font-size="14.00" fill="#000000">ZipFileExplorerModule</text>
</g>
<!-- ZipFileExplorerModule&#45;&gt;ProjectModule -->
<g id="edge8" class="edge">
<title>ZipFileExplorerModule&#45;&gt;ProjectModule</title>
<path fill="none" stroke="#000000" d="M257,-122.1289C257,-142.5724 257,-173 257,-173 257,-173 652.0055,-173 652.0055,-173"/>
<polygon fill="#000000" stroke="#000000" points="652.0055,-176.5001 662.0055,-173 652.0055,-169.5001 652.0055,-176.5001"/>
</g>
<!-- ProjectService -->
<g id="node10" class="node">
<title>ProjectService</title>
<ellipse fill="#fdb462" stroke="#000000" cx="91" cy="-104" rx="67.1888" ry="18"/>
<text text-anchor="middle" x="91" y="-99.8" font-family="Times,serif" font-size="14.00" fill="#000000">ProjectService</text>
</g>
<!-- ProjectService&#45;&gt;ProjectModule -->
<g id="edge9" class="edge">
<title>ProjectService&#45;&gt;ProjectModule</title>
<path fill="none" stroke="#000000" d="M91,-122.0109C91,-144.4852 91,-180 91,-180 91,-180 652.2307,-180 652.2307,-180"/>
<polygon fill="#000000" stroke="#000000" points="652.2307,-183.5001 662.2307,-180 652.2307,-176.5001 652.2307,-183.5001"/>
</g>
</g>
</svg>
