<?xml version="1.0" encoding="UTF-8" standalone="no"?>
<!DOCTYPE svg PUBLIC "-//W3C//DTD SVG 1.1//EN"
 "http://www.w3.org/Graphics/SVG/1.1/DTD/svg11.dtd">
<!-- Generated by graphviz version 2.40.1 (20161225.0304)
 -->
<!-- Title: dependencies Pages: 1 -->
<svg width="504pt" height="211pt"
 viewBox="0.00 0.00 504.00 211.00" xmlns="http://www.w3.org/2000/svg" xmlns:xlink="http://www.w3.org/1999/xlink">
<g id="graph0" class="graph" transform="scale(1 1) rotate(0) translate(4 207)">
<title>dependencies</title>
<polygon fill="#ffffff" stroke="transparent" points="-4,4 -4,-207 500,-207 500,4 -4,4"/>
<text text-anchor="start" x="227.0091" y="-42.4" font-family="sans-serif" font-weight="bold" font-size="14.00" fill="#000000">Legend</text>
<polygon fill="#ffffb3" stroke="transparent" points="14,-10 14,-30 34,-30 34,-10 14,-10"/>
<text text-anchor="start" x="37.629" y="-15.4" font-family="sans-serif" font-size="14.00" fill="#000000"> &#160;Declarations</text>
<polygon fill="#8dd3c7" stroke="transparent" points="127,-10 127,-30 147,-30 147,-10 127,-10"/>
<text text-anchor="start" x="150.7251" y="-15.4" font-family="sans-serif" font-size="14.00" fill="#000000"> &#160;Module</text>
<polygon fill="#80b1d3" stroke="transparent" points="213,-10 213,-30 233,-30 233,-10 213,-10"/>
<text text-anchor="start" x="236.7812" y="-15.4" font-family="sans-serif" font-size="14.00" fill="#000000"> &#160;Bootstrap</text>
<polygon fill="#fdb462" stroke="transparent" points="310,-10 310,-30 330,-30 330,-10 310,-10"/>
<text text-anchor="start" x="333.6732" y="-15.4" font-family="sans-serif" font-size="14.00" fill="#000000"> &#160;Providers</text>
<polygon fill="#fb8072" stroke="transparent" points="406,-10 406,-30 426,-30 426,-10 406,-10"/>
<text text-anchor="start" x="429.7258" y="-15.4" font-family="sans-serif" font-size="14.00" fill="#000000"> &#160;Exports</text>
<g id="clust1" class="cluster">
<title>cluster_ZipFileExplorerModule</title>
<polygon fill="none" stroke="#000000" stroke-dasharray="1,5" points="21,-70 21,-195 475,-195 475,-70 21,-70"/>
</g>
<g id="clust2" class="cluster">
<title>cluster_ZipFileExplorerModule_declarations</title>
<polygon fill="none" stroke="#000000" points="139,-78 139,-130 467,-130 467,-78 139,-78"/>
</g>
<g id="clust6" class="cluster">
<title>cluster_ZipFileExplorerModule_imports</title>
<polygon fill="none" stroke="#000000" points="29,-78 29,-130 131,-130 131,-78 29,-78"/>
</g>
<!-- LexPipe -->
<g id="node1" class="node">
<title>LexPipe</title>
<polygon fill="#ffffb3" stroke="#000000" points="459.1559,-122 396.8441,-122 396.8441,-86 459.1559,-86 459.1559,-122"/>
<text text-anchor="middle" x="428" y="-99.8" font-family="Times,serif" font-size="14.00" fill="#000000">LexPipe</text>
</g>
<!-- ZipFileExplorerModule -->
<g id="node4" class="node">
<title>ZipFileExplorerModule</title>
<polygon fill="#8dd3c7" stroke="#000000" points="333.7506,-187 330.7506,-191 309.7506,-191 306.7506,-187 184.2494,-187 184.2494,-151 333.7506,-151 333.7506,-187"/>
<text text-anchor="middle" x="259" y="-164.8" font-family="Times,serif" font-size="14.00" fill="#000000">ZipFileExplorerModule</text>
</g>
<!-- LexPipe&#45;&gt;ZipFileExplorerModule -->
<g id="edge1" class="edge">
<title>LexPipe&#45;&gt;ZipFileExplorerModule</title>
<path fill="none" stroke="#000000" d="M428,-122.1061C428,-141.3391 428,-169 428,-169 428,-169 344.11,-169 344.11,-169"/>
<polygon fill="#000000" stroke="#000000" points="344.1101,-165.5001 334.11,-169 344.11,-172.5001 344.1101,-165.5001"/>
</g>
<!-- LineNumberPipe -->
<g id="node2" class="node">
<title>LineNumberPipe</title>
<polygon fill="#ffffb3" stroke="#000000" points="378.4188,-122 265.5812,-122 265.5812,-86 378.4188,-86 378.4188,-122"/>
<text text-anchor="middle" x="322" y="-99.8" font-family="Times,serif" font-size="14.00" fill="#000000">LineNumberPipe</text>
</g>
<!-- LineNumberPipe&#45;&gt;ZipFileExplorerModule -->
<g id="edge2" class="edge">
<title>LineNumberPipe&#45;&gt;ZipFileExplorerModule</title>
<path fill="none" stroke="#000000" d="M299.8331,-122.1061C299.8331,-122.1061 299.8331,-140.991 299.8331,-140.991"/>
<polygon fill="#000000" stroke="#000000" points="296.3332,-140.9909 299.8331,-150.991 303.3332,-140.991 296.3332,-140.9909"/>
</g>
<!-- ZipComponent -->
<g id="node3" class="node">
<title>ZipComponent</title>
<polygon fill="#ffffb3" stroke="#000000" points="247.2758,-122 146.7242,-122 146.7242,-86 247.2758,-86 247.2758,-122"/>
<text text-anchor="middle" x="197" y="-99.8" font-family="Times,serif" font-size="14.00" fill="#000000">ZipComponent</text>
</g>
<!-- ZipComponent&#45;&gt;ZipFileExplorerModule -->
<g id="edge3" class="edge">
<title>ZipComponent&#45;&gt;ZipFileExplorerModule</title>
<path fill="none" stroke="#000000" d="M215.7563,-122.1061C215.7563,-122.1061 215.7563,-140.991 215.7563,-140.991"/>
<polygon fill="#000000" stroke="#000000" points="212.2564,-140.9909 215.7563,-150.991 219.2564,-140.991 212.2564,-140.9909"/>
</g>
<!-- CoreModule -->
<g id="node5" class="node">
<title>CoreModule</title>
<polygon fill="#8dd3c7" stroke="#000000" points="123.2619,-122 120.2619,-126 99.2619,-126 96.2619,-122 36.7381,-122 36.7381,-86 123.2619,-86 123.2619,-122"/>
<text text-anchor="middle" x="80" y="-99.8" font-family="Times,serif" font-size="14.00" fill="#000000">CoreModule</text>
</g>
<!-- CoreModule&#45;&gt;ZipFileExplorerModule -->
<g id="edge4" class="edge">
<title>CoreModule&#45;&gt;ZipFileExplorerModule</title>
<path fill="none" stroke="#000000" d="M80,-122.1061C80,-141.3391 80,-169 80,-169 80,-169 174.125,-169 174.125,-169"/>
<polygon fill="#000000" stroke="#000000" points="174.1251,-172.5001 184.125,-169 174.125,-165.5001 174.1251,-172.5001"/>
</g>
</g>
</svg>
