<?xml version="1.0" encoding="UTF-8" standalone="no"?>
<!DOCTYPE svg PUBLIC "-//W3C//DTD SVG 1.1//EN"
 "http://www.w3.org/Graphics/SVG/1.1/DTD/svg11.dtd">
<!-- Generated by graphviz version 2.40.1 (20161225.0304)
 -->
<!-- Title: dependencies Pages: 1 -->
<svg width="1690pt" height="211pt"
 viewBox="0.00 0.00 1690.00 211.00" xmlns="http://www.w3.org/2000/svg" xmlns:xlink="http://www.w3.org/1999/xlink">
<g id="graph0" class="graph" transform="scale(1 1) rotate(0) translate(4 207)">
<title>dependencies</title>
<polygon fill="#ffffff" stroke="transparent" points="-4,4 -4,-207 1686,-207 1686,4 -4,4"/>
<text text-anchor="start" x="820.0091" y="-42.4" font-family="sans-serif" font-weight="bold" font-size="14.00" fill="#000000">Legend</text>
<polygon fill="#ffffb3" stroke="transparent" points="607,-10 607,-30 627,-30 627,-10 607,-10"/>
<text text-anchor="start" x="630.629" y="-15.4" font-family="sans-serif" font-size="14.00" fill="#000000"> &#160;Declarations</text>
<polygon fill="#8dd3c7" stroke="transparent" points="720,-10 720,-30 740,-30 740,-10 720,-10"/>
<text text-anchor="start" x="743.7251" y="-15.4" font-family="sans-serif" font-size="14.00" fill="#000000"> &#160;Module</text>
<polygon fill="#80b1d3" stroke="transparent" points="806,-10 806,-30 826,-30 826,-10 806,-10"/>
<text text-anchor="start" x="829.7812" y="-15.4" font-family="sans-serif" font-size="14.00" fill="#000000"> &#160;Bootstrap</text>
<polygon fill="#fdb462" stroke="transparent" points="903,-10 903,-30 923,-30 923,-10 903,-10"/>
<text text-anchor="start" x="926.6732" y="-15.4" font-family="sans-serif" font-size="14.00" fill="#000000"> &#160;Providers</text>
<polygon fill="#fb8072" stroke="transparent" points="999,-10 999,-30 1019,-30 1019,-10 999,-10"/>
<text text-anchor="start" x="1022.7258" y="-15.4" font-family="sans-serif" font-size="14.00" fill="#000000"> &#160;Exports</text>
<g id="clust1" class="cluster">
<title>cluster_ProjectModule</title>
<polygon fill="none" stroke="#000000" stroke-dasharray="1,5" points="8,-70 8,-195 1674,-195 1674,-70 8,-70"/>
</g>
<g id="clust2" class="cluster">
<title>cluster_ProjectModule_declarations</title>
<polygon fill="none" stroke="#000000" points="626,-78 626,-130 1666,-130 1666,-78 626,-78"/>
</g>
<g id="clust9" class="cluster">
<title>cluster_ProjectModule_imports</title>
<polygon fill="none" stroke="#000000" points="174,-78 174,-130 618,-130 618,-78 174,-78"/>
</g>
<g id="clust12" class="cluster">
<title>cluster_ProjectModule_providers</title>
<polygon fill="none" stroke="#000000" points="16,-78 16,-130 166,-130 166,-78 16,-78"/>
</g>
<!-- HomePageComponent -->
<g id="node1" class="node">
<title>HomePageComponent</title>
<polygon fill="#ffffb3" stroke="#000000" points="1658.2562,-122 1515.7438,-122 1515.7438,-86 1658.2562,-86 1658.2562,-122"/>
<text text-anchor="middle" x="1587" y="-99.8" font-family="Times,serif" font-size="14.00" fill="#000000">HomePageComponent</text>
</g>
<!-- ProjectModule -->
<g id="node7" class="node">
<title>ProjectModule</title>
<polygon fill="#8dd3c7" stroke="#000000" points="847.7036,-187 844.7036,-191 823.7036,-191 820.7036,-187 748.2964,-187 748.2964,-151 847.7036,-151 847.7036,-187"/>
<text text-anchor="middle" x="798" y="-164.8" font-family="Times,serif" font-size="14.00" fill="#000000">ProjectModule</text>
</g>
<!-- HomePageComponent&#45;&gt;ProjectModule -->
<g id="edge1" class="edge">
<title>HomePageComponent&#45;&gt;ProjectModule</title>
<path fill="none" stroke="#000000" d="M1587,-122.0109C1587,-144.4852 1587,-180 1587,-180 1587,-180 857.6544,-180 857.6544,-180"/>
<polygon fill="#000000" stroke="#000000" points="857.6544,-176.5001 847.6544,-180 857.6543,-183.5001 857.6544,-176.5001"/>
</g>
<!-- InputDialogComponent -->
<g id="node2" class="node">
<title>InputDialogComponent</title>
<polygon fill="#ffffb3" stroke="#000000" points="1497.486,-122 1348.514,-122 1348.514,-86 1497.486,-86 1497.486,-122"/>
<text text-anchor="middle" x="1423" y="-99.8" font-family="Times,serif" font-size="14.00" fill="#000000">InputDialogComponent</text>
</g>
<!-- InputDialogComponent&#45;&gt;ProjectModule -->
<g id="edge2" class="edge">
<title>InputDialogComponent&#45;&gt;ProjectModule</title>
<path fill="none" stroke="#000000" d="M1423,-122.1289C1423,-142.5724 1423,-173 1423,-173 1423,-173 857.8272,-173 857.8272,-173"/>
<polygon fill="#000000" stroke="#000000" points="857.8272,-169.5001 847.8272,-173 857.8272,-176.5001 857.8272,-169.5001"/>
</g>
<!-- ProjectCardComponent -->
<g id="node3" class="node">
<title>ProjectCardComponent</title>
<polygon fill="#ffffb3" stroke="#000000" points="1330.1979,-122 1181.8021,-122 1181.8021,-86 1330.1979,-86 1330.1979,-122"/>
<text text-anchor="middle" x="1256" y="-99.8" font-family="Times,serif" font-size="14.00" fill="#000000">ProjectCardComponent</text>
</g>
<!-- ProjectCardComponent&#45;&gt;ProjectModule -->
<g id="edge3" class="edge">
<title>ProjectCardComponent&#45;&gt;ProjectModule</title>
<path fill="none" stroke="#000000" d="M1256,-122.2667C1256,-140.5552 1256,-166 1256,-166 1256,-166 857.8859,-166 857.8859,-166"/>
<polygon fill="#000000" stroke="#000000" points="857.8859,-162.5001 847.8859,-166 857.8859,-169.5001 857.8859,-162.5001"/>
</g>
<!-- ProjectSubmissionComponent -->
<g id="node4" class="node">
<title>ProjectSubmissionComponent</title>
<polygon fill="#ffffb3" stroke="#000000" points="1164.3299,-122 977.6701,-122 977.6701,-86 1164.3299,-86 1164.3299,-122"/>
<text text-anchor="middle" x="1071" y="-99.8" font-family="Times,serif" font-size="14.00" fill="#000000">ProjectSubmissionComponent</text>
</g>
<!-- ProjectSubmissionComponent&#45;&gt;ProjectModule -->
<g id="edge4" class="edge">
<title>ProjectSubmissionComponent&#45;&gt;ProjectModule</title>
<path fill="none" stroke="#000000" d="M1071,-122.0091C1071,-138.0494 1071,-159 1071,-159 1071,-159 857.755,-159 857.755,-159"/>
<polygon fill="#000000" stroke="#000000" points="857.755,-155.5001 847.755,-159 857.7549,-162.5001 857.755,-155.5001"/>
</g>
<!-- UserActionsComponent -->
<g id="node5" class="node">
<title>UserActionsComponent</title>
<polygon fill="#ffffb3" stroke="#000000" points="959.8061,-122 808.1939,-122 808.1939,-86 959.8061,-86 959.8061,-122"/>
<text text-anchor="middle" x="884" y="-99.8" font-family="Times,serif" font-size="14.00" fill="#000000">UserActionsComponent</text>
</g>
<!-- UserActionsComponent&#45;&gt;ProjectModule -->
<g id="edge5" class="edge">
<title>UserActionsComponent&#45;&gt;ProjectModule</title>
<path fill="none" stroke="#000000" d="M827.9744,-122.1061C827.9744,-122.1061 827.9744,-140.991 827.9744,-140.991"/>
<polygon fill="#000000" stroke="#000000" points="824.4745,-140.9909 827.9744,-150.991 831.4745,-140.991 824.4745,-140.9909"/>
</g>
<!-- ViewProjectsComponent -->
<g id="node6" class="node">
<title>ViewProjectsComponent</title>
<polygon fill="#ffffb3" stroke="#000000" points="790.2492,-122 633.7508,-122 633.7508,-86 790.2492,-86 790.2492,-122"/>
<text text-anchor="middle" x="712" y="-99.8" font-family="Times,serif" font-size="14.00" fill="#000000">ViewProjectsComponent</text>
</g>
<!-- ViewProjectsComponent&#45;&gt;ProjectModule -->
<g id="edge6" class="edge">
<title>ViewProjectsComponent&#45;&gt;ProjectModule</title>
<path fill="none" stroke="#000000" d="M769.3864,-122.1061C769.3864,-122.1061 769.3864,-140.991 769.3864,-140.991"/>
<polygon fill="#000000" stroke="#000000" points="765.8865,-140.9909 769.3864,-150.991 772.8865,-140.991 765.8865,-140.9909"/>
</g>
<!-- ProjectRoutingModule -->
<g id="node8" class="node">
<title>ProjectRoutingModule</title>
<polygon fill="#8dd3c7" stroke="#000000" points="610.3216,-122 607.3216,-126 586.3216,-126 583.3216,-122 465.6784,-122 465.6784,-86 610.3216,-86 610.3216,-122"/>
<text text-anchor="middle" x="538" y="-99.8" font-family="Times,serif" font-size="14.00" fill="#000000">ProjectRoutingModule</text>
</g>
<!-- ProjectRoutingModule&#45;&gt;ProjectModule -->
<g id="edge7" class="edge">
<title>ProjectRoutingModule&#45;&gt;ProjectModule</title>
<path fill="none" stroke="#000000" d="M538,-122.0091C538,-138.0494 538,-159 538,-159 538,-159 738.177,-159 738.177,-159"/>
<polygon fill="#000000" stroke="#000000" points="738.1771,-162.5001 748.177,-159 738.177,-155.5001 738.1771,-162.5001"/>
</g>
<!-- SharedModule -->
<g id="node9" class="node">
<title>SharedModule</title>
<polygon fill="#8dd3c7" stroke="#000000" points="448.4231,-122 445.4231,-126 424.4231,-126 421.4231,-122 349.5769,-122 349.5769,-86 448.4231,-86 448.4231,-122"/>
<text text-anchor="middle" x="399" y="-99.8" font-family="Times,serif" font-size="14.00" fill="#000000">SharedModule</text>
</g>
<!-- SharedModule&#45;&gt;ProjectModule -->
<g id="edge8" class="edge">
<title>SharedModule&#45;&gt;ProjectModule</title>
<path fill="none" stroke="#000000" d="M399,-122.2667C399,-140.5552 399,-166 399,-166 399,-166 738.2731,-166 738.2731,-166"/>
<polygon fill="#000000" stroke="#000000" points="738.2732,-169.5001 748.2731,-166 738.2731,-162.5001 738.2732,-169.5001"/>
</g>
<!-- ZipFileExplorerModule -->
<g id="node10" class="node">
<title>ZipFileExplorerModule</title>
<polygon fill="#8dd3c7" stroke="#000000" points="331.7506,-122 328.7506,-126 307.7506,-126 304.7506,-122 182.2494,-122 182.2494,-86 331.7506,-86 331.7506,-122"/>
<text text-anchor="middle" x="257" y="-99.8" font-family="Times,serif" font-size="14.00" fill="#000000">ZipFileExplorerModule</text>
</g>
<!-- ZipFileExplorerModule&#45;&gt;ProjectModule -->
<g id="edge9" class="edge">
<title>ZipFileExplorerModule&#45;&gt;ProjectModule</title>
<path fill="none" stroke="#000000" d="M257,-122.1289C257,-142.5724 257,-173 257,-173 257,-173 738.0737,-173 738.0737,-173"/>
<polygon fill="#000000" stroke="#000000" points="738.0738,-176.5001 748.0737,-173 738.0737,-169.5001 738.0738,-176.5001"/>
</g>
<!-- ProjectService -->
<g id="node11" class="node">
<title>ProjectService</title>
<ellipse fill="#fdb462" stroke="#000000" cx="91" cy="-104" rx="67.1888" ry="18"/>
<text text-anchor="middle" x="91" y="-99.8" font-family="Times,serif" font-size="14.00" fill="#000000">ProjectService</text>
</g>
<!-- ProjectService&#45;&gt;ProjectModule -->
<g id="edge10" class="edge">
<title>ProjectService&#45;&gt;ProjectModule</title>
<path fill="none" stroke="#000000" d="M91,-122.0109C91,-144.4852 91,-180 91,-180 91,-180 738.2851,-180 738.2851,-180"/>
<polygon fill="#000000" stroke="#000000" points="738.2852,-183.5001 748.2851,-180 738.2851,-176.5001 738.2852,-183.5001"/>
</g>
</g>
</svg>
