<?xml version="1.0" encoding="UTF-8" standalone="no"?>
<!DOCTYPE svg PUBLIC "-//W3C//DTD SVG 1.1//EN"
 "http://www.w3.org/Graphics/SVG/1.1/DTD/svg11.dtd">
<!-- Generated by graphviz version 2.40.1 (20161225.0304)
 -->
<!-- Title: dependencies Pages: 1 -->
<svg width="1721pt" height="211pt"
 viewBox="0.00 0.00 1721.00 211.00" xmlns="http://www.w3.org/2000/svg" xmlns:xlink="http://www.w3.org/1999/xlink">
<g id="graph0" class="graph" transform="scale(1 1) rotate(0) translate(4 207)">
<title>dependencies</title>
<polygon fill="#ffffff" stroke="transparent" points="-4,4 -4,-207 1717,-207 1717,4 -4,4"/>
<text text-anchor="start" x="835.5091" y="-42.4" font-family="sans-serif" font-weight="bold" font-size="14.00" fill="#000000">Legend</text>
<polygon fill="#ffffb3" stroke="transparent" points="622.5,-10 622.5,-30 642.5,-30 642.5,-10 622.5,-10"/>
<text text-anchor="start" x="646.129" y="-15.4" font-family="sans-serif" font-size="14.00" fill="#000000"> &#160;Declarations</text>
<polygon fill="#8dd3c7" stroke="transparent" points="735.5,-10 735.5,-30 755.5,-30 755.5,-10 735.5,-10"/>
<text text-anchor="start" x="759.2251" y="-15.4" font-family="sans-serif" font-size="14.00" fill="#000000"> &#160;Module</text>
<polygon fill="#80b1d3" stroke="transparent" points="821.5,-10 821.5,-30 841.5,-30 841.5,-10 821.5,-10"/>
<text text-anchor="start" x="845.2812" y="-15.4" font-family="sans-serif" font-size="14.00" fill="#000000"> &#160;Bootstrap</text>
<polygon fill="#fdb462" stroke="transparent" points="918.5,-10 918.5,-30 938.5,-30 938.5,-10 918.5,-10"/>
<text text-anchor="start" x="942.1732" y="-15.4" font-family="sans-serif" font-size="14.00" fill="#000000"> &#160;Providers</text>
<polygon fill="#fb8072" stroke="transparent" points="1014.5,-10 1014.5,-30 1034.5,-30 1034.5,-10 1014.5,-10"/>
<text text-anchor="start" x="1038.2258" y="-15.4" font-family="sans-serif" font-size="14.00" fill="#000000"> &#160;Exports</text>
<g id="clust1" class="cluster">
<title>cluster_ProjectModule</title>
<polygon fill="none" stroke="#000000" stroke-dasharray="1,5" points="8,-70 8,-195 1705,-195 1705,-70 8,-70"/>
</g>
<g id="clust2" class="cluster">
<title>cluster_ProjectModule_declarations</title>
<polygon fill="none" stroke="#000000" points="684,-78 684,-130 1697,-130 1697,-78 684,-78"/>
</g>
<g id="clust9" class="cluster">
<title>cluster_ProjectModule_imports</title>
<polygon fill="none" stroke="#000000" points="232,-78 232,-130 676,-130 676,-78 232,-78"/>
</g>
<g id="clust12" class="cluster">
<title>cluster_ProjectModule_providers</title>
<polygon fill="none" stroke="#000000" points="16,-78 16,-130 224,-130 224,-78 16,-78"/>
</g>
<!-- HomePageComponent -->
<g id="node1" class="node">
<title>HomePageComponent</title>
<polygon fill="#ffffb3" stroke="#000000" points="1689.2562,-122 1546.7438,-122 1546.7438,-86 1689.2562,-86 1689.2562,-122"/>
<text text-anchor="middle" x="1618" y="-99.8" font-family="Times,serif" font-size="14.00" fill="#000000">HomePageComponent</text>
</g>
<!-- ProjectModule -->
<g id="node7" class="node">
<title>ProjectModule</title>
<polygon fill="#8dd3c7" stroke="#000000" points="905.7036,-187 902.7036,-191 881.7036,-191 878.7036,-187 806.2964,-187 806.2964,-151 905.7036,-151 905.7036,-187"/>
<text text-anchor="middle" x="856" y="-164.8" font-family="Times,serif" font-size="14.00" fill="#000000">ProjectModule</text>
</g>
<!-- HomePageComponent&#45;&gt;ProjectModule -->
<g id="edge1" class="edge">
<title>HomePageComponent&#45;&gt;ProjectModule</title>
<path fill="none" stroke="#000000" d="M1618,-122.0109C1618,-144.4852 1618,-180 1618,-180 1618,-180 915.703,-180 915.703,-180"/>
<polygon fill="#000000" stroke="#000000" points="915.703,-176.5001 905.703,-180 915.703,-183.5001 915.703,-176.5001"/>
</g>
<!-- NavbarComponent -->
<g id="node2" class="node">
<title>NavbarComponent</title>
<polygon fill="#ffffb3" stroke="#000000" points="1528.0297,-122 1405.9703,-122 1405.9703,-86 1528.0297,-86 1528.0297,-122"/>
<text text-anchor="middle" x="1467" y="-99.8" font-family="Times,serif" font-size="14.00" fill="#000000">NavbarComponent</text>
</g>
<!-- NavbarComponent&#45;&gt;ProjectModule -->
<g id="edge2" class="edge">
<title>NavbarComponent&#45;&gt;ProjectModule</title>
<path fill="none" stroke="#000000" d="M1467,-122.1289C1467,-142.5724 1467,-173 1467,-173 1467,-173 915.7416,-173 915.7416,-173"/>
<polygon fill="#000000" stroke="#000000" points="915.7417,-169.5001 905.7416,-173 915.7416,-176.5001 915.7417,-169.5001"/>
</g>
<!-- ProjectCardComponent -->
<g id="node3" class="node">
<title>ProjectCardComponent</title>
<polygon fill="#ffffb3" stroke="#000000" points="1388.1979,-122 1239.8021,-122 1239.8021,-86 1388.1979,-86 1388.1979,-122"/>
<text text-anchor="middle" x="1314" y="-99.8" font-family="Times,serif" font-size="14.00" fill="#000000">ProjectCardComponent</text>
</g>
<!-- ProjectCardComponent&#45;&gt;ProjectModule -->
<g id="edge3" class="edge">
<title>ProjectCardComponent&#45;&gt;ProjectModule</title>
<path fill="none" stroke="#000000" d="M1314,-122.2667C1314,-140.5552 1314,-166 1314,-166 1314,-166 915.8859,-166 915.8859,-166"/>
<polygon fill="#000000" stroke="#000000" points="915.8859,-162.5001 905.8859,-166 915.8859,-169.5001 915.8859,-162.5001"/>
</g>
<!-- ProjectSubmissionComponent -->
<g id="node4" class="node">
<title>ProjectSubmissionComponent</title>
<polygon fill="#ffffb3" stroke="#000000" points="1222.3299,-122 1035.6701,-122 1035.6701,-86 1222.3299,-86 1222.3299,-122"/>
<text text-anchor="middle" x="1129" y="-99.8" font-family="Times,serif" font-size="14.00" fill="#000000">ProjectSubmissionComponent</text>
</g>
<!-- ProjectSubmissionComponent&#45;&gt;ProjectModule -->
<g id="edge4" class="edge">
<title>ProjectSubmissionComponent&#45;&gt;ProjectModule</title>
<path fill="none" stroke="#000000" d="M1129,-122.0091C1129,-138.0494 1129,-159 1129,-159 1129,-159 915.755,-159 915.755,-159"/>
<polygon fill="#000000" stroke="#000000" points="915.755,-155.5001 905.755,-159 915.7549,-162.5001 915.755,-155.5001"/>
</g>
<!-- UserActionsComponent -->
<g id="node5" class="node">
<title>UserActionsComponent</title>
<polygon fill="#ffffb3" stroke="#000000" points="1017.8061,-122 866.1939,-122 866.1939,-86 1017.8061,-86 1017.8061,-122"/>
<text text-anchor="middle" x="942" y="-99.8" font-family="Times,serif" font-size="14.00" fill="#000000">UserActionsComponent</text>
</g>
<!-- UserActionsComponent&#45;&gt;ProjectModule -->
<g id="edge5" class="edge">
<title>UserActionsComponent&#45;&gt;ProjectModule</title>
<path fill="none" stroke="#000000" d="M885.9744,-122.1061C885.9744,-122.1061 885.9744,-140.991 885.9744,-140.991"/>
<polygon fill="#000000" stroke="#000000" points="882.4745,-140.9909 885.9744,-150.991 889.4745,-140.991 882.4745,-140.9909"/>
</g>
<!-- ViewProjectsComponent -->
<g id="node6" class="node">
<title>ViewProjectsComponent</title>
<polygon fill="#ffffb3" stroke="#000000" points="848.2492,-122 691.7508,-122 691.7508,-86 848.2492,-86 848.2492,-122"/>
<text text-anchor="middle" x="770" y="-99.8" font-family="Times,serif" font-size="14.00" fill="#000000">ViewProjectsComponent</text>
</g>
<!-- ViewProjectsComponent&#45;&gt;ProjectModule -->
<g id="edge6" class="edge">
<title>ViewProjectsComponent&#45;&gt;ProjectModule</title>
<path fill="none" stroke="#000000" d="M827.3864,-122.1061C827.3864,-122.1061 827.3864,-140.991 827.3864,-140.991"/>
<polygon fill="#000000" stroke="#000000" points="823.8865,-140.9909 827.3864,-150.991 830.8865,-140.991 823.8865,-140.9909"/>
</g>
<!-- ProjectRoutingModule -->
<g id="node8" class="node">
<title>ProjectRoutingModule</title>
<polygon fill="#8dd3c7" stroke="#000000" points="668.3216,-122 665.3216,-126 644.3216,-126 641.3216,-122 523.6784,-122 523.6784,-86 668.3216,-86 668.3216,-122"/>
<text text-anchor="middle" x="596" y="-99.8" font-family="Times,serif" font-size="14.00" fill="#000000">ProjectRoutingModule</text>
</g>
<!-- ProjectRoutingModule&#45;&gt;ProjectModule -->
<g id="edge7" class="edge">
<title>ProjectRoutingModule&#45;&gt;ProjectModule</title>
<path fill="none" stroke="#000000" d="M596,-122.0091C596,-138.0494 596,-159 596,-159 596,-159 796.177,-159 796.177,-159"/>
<polygon fill="#000000" stroke="#000000" points="796.1771,-162.5001 806.177,-159 796.177,-155.5001 796.1771,-162.5001"/>
</g>
<!-- SharedModule -->
<g id="node9" class="node">
<title>SharedModule</title>
<polygon fill="#8dd3c7" stroke="#000000" points="506.4231,-122 503.4231,-126 482.4231,-126 479.4231,-122 407.5769,-122 407.5769,-86 506.4231,-86 506.4231,-122"/>
<text text-anchor="middle" x="457" y="-99.8" font-family="Times,serif" font-size="14.00" fill="#000000">SharedModule</text>
</g>
<!-- SharedModule&#45;&gt;ProjectModule -->
<g id="edge8" class="edge">
<title>SharedModule&#45;&gt;ProjectModule</title>
<path fill="none" stroke="#000000" d="M457,-122.2667C457,-140.5552 457,-166 457,-166 457,-166 796.2731,-166 796.2731,-166"/>
<polygon fill="#000000" stroke="#000000" points="796.2732,-169.5001 806.2731,-166 796.2731,-162.5001 796.2732,-169.5001"/>
</g>
<!-- ZipFileExplorerModule -->
<g id="node10" class="node">
<title>ZipFileExplorerModule</title>
<polygon fill="#8dd3c7" stroke="#000000" points="389.7506,-122 386.7506,-126 365.7506,-126 362.7506,-122 240.2494,-122 240.2494,-86 389.7506,-86 389.7506,-122"/>
<text text-anchor="middle" x="315" y="-99.8" font-family="Times,serif" font-size="14.00" fill="#000000">ZipFileExplorerModule</text>
</g>
<!-- ZipFileExplorerModule&#45;&gt;ProjectModule -->
<g id="edge9" class="edge">
<title>ZipFileExplorerModule&#45;&gt;ProjectModule</title>
<path fill="none" stroke="#000000" d="M315,-122.1289C315,-142.5724 315,-173 315,-173 315,-173 796.0737,-173 796.0737,-173"/>
<polygon fill="#000000" stroke="#000000" points="796.0738,-176.5001 806.0737,-173 796.0737,-169.5001 796.0738,-176.5001"/>
</g>
<!-- ProjectServiceService -->
<g id="node11" class="node">
<title>ProjectServiceService</title>
<ellipse fill="#fdb462" stroke="#000000" cx="120" cy="-104" rx="96.0996" ry="18"/>
<text text-anchor="middle" x="120" y="-99.8" font-family="Times,serif" font-size="14.00" fill="#000000">ProjectServiceService</text>
</g>
<!-- ProjectServiceService&#45;&gt;ProjectModule -->
<g id="edge10" class="edge">
<title>ProjectServiceService&#45;&gt;ProjectModule</title>
<path fill="none" stroke="#000000" d="M120,-122.0109C120,-144.4852 120,-180 120,-180 120,-180 796.2786,-180 796.2786,-180"/>
<polygon fill="#000000" stroke="#000000" points="796.2786,-183.5001 806.2786,-180 796.2786,-176.5001 796.2786,-183.5001"/>
</g>
</g>
</svg>
