<?xml version="1.0" encoding="UTF-8" standalone="no"?>
<!DOCTYPE svg PUBLIC "-//W3C//DTD SVG 1.1//EN"
 "http://www.w3.org/Graphics/SVG/1.1/DTD/svg11.dtd">
<!-- Generated by graphviz version 2.40.1 (20161225.0304)
 -->
<!-- Title: dependencies Pages: 1 -->
<svg width="1017pt" height="211pt"
 viewBox="0.00 0.00 1017.00 211.00" xmlns="http://www.w3.org/2000/svg" xmlns:xlink="http://www.w3.org/1999/xlink">
<g id="graph0" class="graph" transform="scale(1 1) rotate(0) translate(4 207)">
<title>dependencies</title>
<polygon fill="#ffffff" stroke="transparent" points="-4,4 -4,-207 1013,-207 1013,4 -4,4"/>
<text text-anchor="start" x="483.5091" y="-42.4" font-family="sans-serif" font-weight="bold" font-size="14.00" fill="#000000">Legend</text>
<polygon fill="#ffffb3" stroke="transparent" points="270.5,-10 270.5,-30 290.5,-30 290.5,-10 270.5,-10"/>
<text text-anchor="start" x="294.129" y="-15.4" font-family="sans-serif" font-size="14.00" fill="#000000"> &#160;Declarations</text>
<polygon fill="#8dd3c7" stroke="transparent" points="383.5,-10 383.5,-30 403.5,-30 403.5,-10 383.5,-10"/>
<text text-anchor="start" x="407.2251" y="-15.4" font-family="sans-serif" font-size="14.00" fill="#000000"> &#160;Module</text>
<polygon fill="#80b1d3" stroke="transparent" points="469.5,-10 469.5,-30 489.5,-30 489.5,-10 469.5,-10"/>
<text text-anchor="start" x="493.2812" y="-15.4" font-family="sans-serif" font-size="14.00" fill="#000000"> &#160;Bootstrap</text>
<polygon fill="#fdb462" stroke="transparent" points="566.5,-10 566.5,-30 586.5,-30 586.5,-10 566.5,-10"/>
<text text-anchor="start" x="590.1732" y="-15.4" font-family="sans-serif" font-size="14.00" fill="#000000"> &#160;Providers</text>
<polygon fill="#fb8072" stroke="transparent" points="662.5,-10 662.5,-30 682.5,-30 682.5,-10 662.5,-10"/>
<text text-anchor="start" x="686.2258" y="-15.4" font-family="sans-serif" font-size="14.00" fill="#000000"> &#160;Exports</text>
<g id="clust1" class="cluster">
<title>cluster_ProjectModule</title>
<polygon fill="none" stroke="#000000" stroke-dasharray="1,5" points="8,-70 8,-195 1001,-195 1001,-70 8,-70"/>
</g>
<g id="clust2" class="cluster">
<title>cluster_ProjectModule_declarations</title>
<polygon fill="none" stroke="#000000" points="184,-78 184,-130 993,-130 993,-78 184,-78"/>
</g>
<g id="clust8" class="cluster">
<title>cluster_ProjectModule_imports</title>
<polygon fill="none" stroke="#000000" points="16,-78 16,-130 176,-130 176,-78 16,-78"/>
</g>
<!-- HomePageComponent -->
<g id="node1" class="node">
<title>HomePageComponent</title>
<polygon fill="#ffffb3" stroke="#000000" points="985.2562,-122 842.7438,-122 842.7438,-86 985.2562,-86 985.2562,-122"/>
<text text-anchor="middle" x="914" y="-99.8" font-family="Times,serif" font-size="14.00" fill="#000000">HomePageComponent</text>
</g>
<!-- ProjectModule -->
<g id="node6" class="node">
<title>ProjectModule</title>
<polygon fill="#8dd3c7" stroke="#000000" points="575.7036,-187 572.7036,-191 551.7036,-191 548.7036,-187 476.2964,-187 476.2964,-151 575.7036,-151 575.7036,-187"/>
<text text-anchor="middle" x="526" y="-164.8" font-family="Times,serif" font-size="14.00" fill="#000000">ProjectModule</text>
</g>
<!-- HomePageComponent&#45;&gt;ProjectModule -->
<g id="edge1" class="edge">
<title>HomePageComponent&#45;&gt;ProjectModule</title>
<path fill="none" stroke="#000000" d="M914,-122.2843C914,-143.3211 914,-175 914,-175 914,-175 585.9299,-175 585.9299,-175"/>
<polygon fill="#000000" stroke="#000000" points="585.9299,-171.5001 575.9299,-175 585.9299,-178.5001 585.9299,-171.5001"/>
</g>
<!-- NavbarComponent -->
<g id="node2" class="node">
<title>NavbarComponent</title>
<polygon fill="#ffffb3" stroke="#000000" points="824.0297,-122 701.9703,-122 701.9703,-86 824.0297,-86 824.0297,-122"/>
<text text-anchor="middle" x="763" y="-99.8" font-family="Times,serif" font-size="14.00" fill="#000000">NavbarComponent</text>
</g>
<!-- NavbarComponent&#45;&gt;ProjectModule -->
<g id="edge2" class="edge">
<title>NavbarComponent&#45;&gt;ProjectModule</title>
<path fill="none" stroke="#000000" d="M763,-122.0225C763,-139.3734 763,-163 763,-163 763,-163 585.683,-163 585.683,-163"/>
<polygon fill="#000000" stroke="#000000" points="585.683,-159.5001 575.683,-163 585.6829,-166.5001 585.683,-159.5001"/>
</g>
<!-- ProjectCardComponent -->
<g id="node3" class="node">
<title>ProjectCardComponent</title>
<polygon fill="#ffffb3" stroke="#000000" points="684.1979,-122 535.8021,-122 535.8021,-86 684.1979,-86 684.1979,-122"/>
<text text-anchor="middle" x="610" y="-99.8" font-family="Times,serif" font-size="14.00" fill="#000000">ProjectCardComponent</text>
</g>
<!-- ProjectCardComponent&#45;&gt;ProjectModule -->
<g id="edge3" class="edge">
<title>ProjectCardComponent&#45;&gt;ProjectModule</title>
<path fill="none" stroke="#000000" d="M555.7514,-122.1061C555.7514,-122.1061 555.7514,-140.991 555.7514,-140.991"/>
<polygon fill="#000000" stroke="#000000" points="552.2515,-140.9909 555.7514,-150.991 559.2515,-140.991 552.2515,-140.9909"/>
</g>
<!-- UserActionsComponent -->
<g id="node4" class="node">
<title>UserActionsComponent</title>
<polygon fill="#ffffb3" stroke="#000000" points="517.8061,-122 366.1939,-122 366.1939,-86 517.8061,-86 517.8061,-122"/>
<text text-anchor="middle" x="442" y="-99.8" font-family="Times,serif" font-size="14.00" fill="#000000">UserActionsComponent</text>
</g>
<!-- UserActionsComponent&#45;&gt;ProjectModule -->
<g id="edge4" class="edge">
<title>UserActionsComponent&#45;&gt;ProjectModule</title>
<path fill="none" stroke="#000000" d="M497.0256,-122.1061C497.0256,-122.1061 497.0256,-140.991 497.0256,-140.991"/>
<polygon fill="#000000" stroke="#000000" points="493.5257,-140.9909 497.0256,-150.991 500.5257,-140.991 493.5257,-140.9909"/>
</g>
<!-- ViewProjectsComponent -->
<g id="node5" class="node">
<title>ViewProjectsComponent</title>
<polygon fill="#ffffb3" stroke="#000000" points="348.2492,-122 191.7508,-122 191.7508,-86 348.2492,-86 348.2492,-122"/>
<text text-anchor="middle" x="270" y="-99.8" font-family="Times,serif" font-size="14.00" fill="#000000">ViewProjectsComponent</text>
</g>
<!-- ViewProjectsComponent&#45;&gt;ProjectModule -->
<g id="edge5" class="edge">
<title>ViewProjectsComponent&#45;&gt;ProjectModule</title>
<path fill="none" stroke="#000000" d="M270,-122.0225C270,-139.3734 270,-163 270,-163 270,-163 466.3371,-163 466.3371,-163"/>
<polygon fill="#000000" stroke="#000000" points="466.3371,-166.5001 476.3371,-163 466.337,-159.5001 466.3371,-166.5001"/>
</g>
<!-- ProjectRoutingModule -->
<g id="node7" class="node">
<title>ProjectRoutingModule</title>
<polygon fill="#8dd3c7" stroke="#000000" points="168.3216,-122 165.3216,-126 144.3216,-126 141.3216,-122 23.6784,-122 23.6784,-86 168.3216,-86 168.3216,-122"/>
<text text-anchor="middle" x="96" y="-99.8" font-family="Times,serif" font-size="14.00" fill="#000000">ProjectRoutingModule</text>
</g>
<!-- ProjectRoutingModule&#45;&gt;ProjectModule -->
<g id="edge6" class="edge">
<title>ProjectRoutingModule&#45;&gt;ProjectModule</title>
<path fill="none" stroke="#000000" d="M96,-122.2843C96,-143.3211 96,-175 96,-175 96,-175 466.2535,-175 466.2535,-175"/>
<polygon fill="#000000" stroke="#000000" points="466.2535,-178.5001 476.2535,-175 466.2534,-171.5001 466.2535,-178.5001"/>
</g>
</g>
</svg>
